<ttFont>
<head>
    <!-- Most of this table will be recalculated by the compiler -->
    <tableVersion value="1.0"/>
    <fontRevision value="1.0"/>
    <checkSumAdjustment value="0xf809cde1"/>
    <magicNumber value="0x5f0f3cf5"/>
    <flags value="00000000 00000011"/>
    <unitsPerEm value="2048"/>
    <created value="Thu Aug 15 19:03:57 2019"/>
    <modified value="Fri Aug 16 02:19:04 2019"/>
    <xMin value="-437"/>
    <yMin value="-525"/>
    <xMax value="3215"/>
    <yMax value="1951"/>
<macStyle value="00000000 00000000"/>
    <lowestRecPPEM value="3"/>
    <fontDirectionHint value="2"/>
    <indexToLocFormat value="0"/>
    <glyphDataFormat value="0"/>
  </head>
          <CharString index="0">
            -1100 44 callsubr
            return
          </CharString>
          <CharString index="1">
            241 17 rmoveto
            370 136 291 return
          </CharString>
          <CharString index="2">
            rmoveto
            -326 -37 0 -41 65 -19 rlineto
            return
          </CharString>
          <CharString index="3">
            333 303 188 -307 -387 -370 -135 -292 -333 -303 return
          </CharString>
          <CharString index="4">
            463 -356 282 -366 -437 -284 -333 -413 vhcurveto
            return
          </CharString>
          <CharString index="5">
            rmoveto
            145 119 65 82 50 hvcurveto
            -92 19 71 -50 98 hhcurveto
            return
          </CharString>
          <CharString index="6">
            rmoveto
            69 callsubr
            return
          </CharString>
          <CharString index="7">
            -520 43 callsubr
            return
          </CharString>
          <CharString index="8">
            302 -217 202 -278 -284 -220 -209 -301 -303 217 -202 277 return
          </CharString>
          <CharString index="9">
            rmoveto
            -442 1201 -112 0 -430 -1166 -69 -187 -29 -33 -115 -15 rlinecurve
            -47 407 47 vlineto
            -151 20 -16 39 59 171 rrcurveto
            81 235 495 0 93 -264 51 -145 -22 -39 -139 -17 rlinecurve
            -47 return
          </CharString>
          <CharString index="10">
            447 47 vlineto
            -108 14 -13 15 63 vvcurveto
            return
          </CharString>
          <CharString index="11">
            -189 308 387 vhcurveto
            endchar
          </CharString>
          <CharString index="12">
            91 callsubr
            endchar
          </CharString>
          <CharString index="13">
            53 callsubr
            endchar
          </CharString>
          <CharString index="14">
            rmoveto
            283 222 210 301 return
          </CharString>
          <CharString index="15">
            hvcurveto
            -31 callgsubr
          </CharString>
          <CharString index="16">
            rmoveto
            -17 callsubr
            1084 vlineto
            -70 callsubr
            -37 callsubr
            -15 callsubr
            endchar
          </CharString>
          <CharString index="17">
            -74 callsubr
            endchar
          </CharString>
          <CharString index="18">
            638 vlineto
            69 41 79 48 109 hhcurveto
            143 86 -84 -167 hvcurveto
            -504 173 callsubr
            544 vlineto
            204 -137 104 -198 return
          </CharString>
          <CharString index="19">
            rmoveto
            -308 205 -198 277 return
          </CharString>
          <CharString index="20">
            -666 96 callsubr
            return
          </CharString>
          <CharString index="21">
            59 callsubr
            endchar
          </CharString>
          <CharString index="22">
            55 -60 callgsubr
            194 148 114 72 101 56 vhcurveto
            -164 vlineto
            return
          </CharString>
          <CharString index="23">
            rmoveto
            -54 callgsubr
            213 callsubr
            endchar
          </CharString>
          <CharString index="24">
            60 callsubr
            endchar
          </CharString>
          <CharString index="25">
            1547 rmoveto
            298 266 rlineto
            6 return
          </CharString>
          <CharString index="26">
            1111 rmoveto
            316 347 rlineto
            9 -85 callgsubr
            return
          </CharString>
          <CharString index="27">
            34 callsubr
            endchar
          </CharString>
          <CharString index="28">
            -47 hlineto
            134 -16 18 -20 -89 vvcurveto
            return
          </CharString>
          <CharString index="29">
            -211 vlineto
            -145 -271 rlineto
            return
          </CharString>
          <CharString index="30">
            rmoveto
            1100 vlineto
            89 -51 callsubr
            return
          </CharString>
          <CharString index="31">
            56 -16 8 -12 -53 vvcurveto
            -87 callsubr
            return
          </CharString>
          <CharString index="32">
            rmoveto
            -323 -37 0 -41 -13 callsubr
            return
          </CharString>
          <CharString index="33">
            455 47 vlineto
            -112 15 -17 16 66 vvcurveto
            return
          </CharString>
          <CharString index="34">
            rmoveto
            504 111 -504 hlineto
            endchar
          </CharString>
          <CharString index="35">
            1831 -88 callgsubr
            return
          </CharString>
          <CharString index="36">
            35 31 40 40 -35 31 return
          </CharString>
          <CharString index="37">
            17 388 rlineto
            -43 hlineto
            return
          </CharString>
          <CharString index="38">
            1588 rmoveto
            55 43 43 52 53 -43 42 -55 -54 return
          </CharString>
          <CharString index="39">
            -53 -43 -42 -53 -53 43 -42 53 hvcurveto
            return
          </CharString>
          <CharString index="40">
            -326 -38 0 -41 65 -18 rlineto
            56 -17 return
          </CharString>
          <CharString index="41">
            rmoveto
            -55 -43 -42 -53 -53 43 -42 55 54 return
          </CharString>
          <CharString index="42">
            1180 rmoveto
            44 callgsubr
            return
          </CharString>
          <CharString index="43">
            rmoveto
            315 -768 -76 -157 -112 -197 -80 -107 rlinecurve
            -3 169 vlineto
            160 456 83 202 223 549 60 147 25 22 90 15 rlinecurve
            47 -346 -47 vlineto
            125 -16 21 -26 -48 -129 rrcurveto
            -197 -525 -198 530 -47 125 20 25 125 16 rlinecurve
            47 -474 -47 vlineto
            87 -18 27 -22 48 -119 rrcurveto
            endchar
          </CharString>
          <CharString index="44">
            1547 rmoveto
            202 147 200 -147 59 0 return
          </CharString>
          <CharString index="45">
            -43 -42 -53 -52 43 -43 54 hvcurveto
            return
          </CharString>
          <CharString index="46">
            172 rmoveto
            1100 vlineto
            89 return
          </CharString>
          <CharString index="47">
            rmoveto
            328 -534 rlineto
            -476 vlineto
            -97 -20 -26 -145 -39 callgsubr
            -19 26 97 vvcurveto
            488 vlineto
            303 168 callsubr
            -94 -168 rrcurveto
            -252 -443 -281 470 -84 142 16 177 callsubr
            endchar
          </CharString>
          <CharString index="48">
            -347 rlineto
            43 hlineto
            45 230 81 47 273 13 59 3 rcurveline
            return
          </CharString>
          <CharString index="49">
            380 1482 rmoveto
            -67 callsubr
            -44 callsubr
            return
          </CharString>
          <CharString index="50">
            95 callsubr
            -60 -47 -44 -57 -56 47 -44 60 hvcurveto
            endchar
          </CharString>
          <CharString index="51">
            rmoveto
            60 47 44 56 57 -47 44 -60 38 callsubr
          </CharString>
          <CharString index="52">
            -59 0 205 -272 107 0 205 272 rlineto
            return
          </CharString>
          <CharString index="53">
            -205 272 -107 0 -205 -272 rlineto
            return
          </CharString>
          <CharString index="54">
            377 988 -75 callsubr
            return
          </CharString>
          <CharString index="55">
            rmoveto
            132 88 68 102 103 -80 65 return
          </CharString>
          <CharString index="56">
            19 20 133 16 vhcurveto
            47 return
          </CharString>
          <CharString index="57">
            1100 13 callgsubr
            -508 -728 508 vlineto
            85 20 18 125 16 vhcurveto
            48 -513 43 callsubr
            -107 callsubr
            return
          </CharString>
          <CharString index="58">
            1111 rmoveto
            220 197 216 -197 61 0 -53 callgsubr
            return
          </CharString>
          <CharString index="59">
            1482 rmoveto
            -220 -197 -216 197 -61 0 227 -96 callgsubr
            return
          </CharString>
          <CharString index="60">
            250 109 250 -109 0 52 -232 188 -37 0 -231 -188 rlineto
            return
          </CharString>
          <CharString index="61">
            rmoveto
            -54 -43 -42 -53 -53 43 -42 54 37 callsubr
          </CharString>
          <CharString index="62">
            53 43 42 53 53 -43 42 -53 94 callsubr
            return
          </CharString>
          <CharString index="63">
            8 -12 -53 vvcurveto
            -1159 96 callsubr
            return
          </CharString>
          <CharString index="64">
            1219 rmoveto
            542 123 -542 hlineto
            return
          </CharString>
          <CharString index="65">
            546 47 vlineto
            -146 16 -20 26 97 vvcurveto
            return
          </CharString>
          <CharString index="66">
            513 47 vlineto
            -125 16 -20 18 86 vvcurveto
            return
          </CharString>
          <CharString index="67">
            -1204 97 callsubr
            return
          </CharString>
          <CharString index="68">
            314 hmoveto
            -18 callsubr
            return
          </CharString>
          <CharString index="69">
            -41 callsubr
            endchar
          </CharString>
          <CharString index="70">
            -53 -268 -77 -44 -297 -12 rrcurveto
            -263 -10 0 659 287 -4 107 -3 25 -42 29 -156 rlinecurve
            40 464 -40 hlineto
            -33 -159 -23 -39 -105 -3 rrcurveto
            -287 -4 0 623 237 -9 return
          </CharString>
          <CharString index="71">
            hhcurveto
            -26 -26 7 15 -39 hvcurveto
            -28 11 rlineto
            16 -39 -39 10 -43 hhcurveto
            -80 -62 -57 -121 1 hvcurveto
            49 hlineto
            55 1 27 20 42 hhcurveto
            return
          </CharString>
          <CharString index="72">
            -210 119 -73 136 100 98 46 46 39 vhcurveto
            89 callgsubr
            return
          </CharString>
          <CharString index="73">
            1459 rmoveto
            134 vlineto
            -500 -172 rlineto
            -51 vlineto
            return
          </CharString>
          <CharString index="74">
            -671 vlineto
            -290 -38 -149 -161 -137 vhcurveto
            return
          </CharString>
          <CharString index="75">
            1587 rmoveto
            54 42 42 53 53 -42 42 -54 return
          </CharString>
          <CharString index="76">
            1251 1444 rmoveto
            -1191 hlineto
            -14 return
          </CharString>
          <CharString index="77">
            1611 rmoveto
            489 108 -489 hlineto
            return
          </CharString>
          <CharString index="78">
            317 hmoveto
            54 42 42 53 53 -42 42 -54 return
          </CharString>
          <CharString index="79">
            390 1444 20 callsubr
            return
          </CharString>
          <CharString index="80">
            1187 rmoveto
            39 callsubr
            return
          </CharString>
          <CharString index="81">
            rmoveto
            205 178 201 -178 return
          </CharString>
          <CharString index="82">
            rmoveto
            -92 -52 116 234 231 return
          </CharString>
          <CharString index="83">
            rmoveto
            -159 107 -104 147 -36 vhcurveto
            -146 -33 -91 -72 -104 vvcurveto
            -106 101 -66 137 -2 vhcurveto
            -196 -27 -100 -82 -108 vvcurveto
            -152 181 -100 280 266 220 141 211 174 -132 94 -236 vhcurveto
            -195 hlineto
            -111 -59 34 66 56 43 41 86 21 hvcurveto
            -8 46 35 -4 35 hhcurveto
            213 194 127 206 110 -55 91 -90 44 hvcurveto
            270 -13 0 78 -338 -19 rlineto
            22 -53 -68 14 -76 hhcurveto
            -227 -188 -132 -203 hvcurveto
            198 9 rmoveto
            161 80 107 131 139 81 -113 -164 -161 -85 -105 -126 -131 -89 107 168 vhcurveto
            -68 -887 rmoveto
            95 57 69 116 18 vhcurveto
            207 hlineto
            165 70 -63 -106 -134 -130 -87 -191 -187 -107 88 120 hvcurveto
            endchar
          </CharString>
          <CharString index="84">
            rmoveto
            150 108 89 136 -8 hvcurveto
            -49 hlineto
            -63 -4 -84 -42 -113 hhcurveto
            -112 -85 42 63 -4 hvcurveto
            -49 hlineto
            -136 -8 108 -89 150 hhcurveto
            return
          </CharString>
          <CharString index="85">
            -321 -192 318 390 390 189 258 319 -27 callgsubr
          </CharString>
          <CharString index="86">
            1459 rmoveto
            500 -89 0 51 -500 172 rlineto
            return
          </CharString>
          <CharString index="87">
            1111 rmoveto
            59 hlineto
            -160 356 rlineto
            -219 -9 hlineto
            return
          </CharString>
          <CharString index="88">
            -60 0 205 -272 108 0 205 272 rlineto
            return
          </CharString>
          <CharString index="89">
            48 37 37 46 48 -37 38 -48 82 callsubr
            return
          </CharString>
          <CharString index="90">
            -1037 -79 callsubr
            -107 callsubr
            return
          </CharString>
          <CharString index="91">
            533 47 vlineto
            -146 16 -19 26 97 vvcurveto
            return
          </CharString>
          <CharString index="92">
            266 -10 85 -53 52 -221 rlinecurve
            43 hlineto
            return
          </CharString>
          <CharString index="93">
            118 -187 rmoveto
            -326 -37 0 -41 return
          </CharString>
          <CharString index="94">
            65 -19 rlineto
            56 -16 8 -12 -53 vvcurveto
            return
          </CharString>
          <CharString index="95">
            1175 37 callgsubr
            return
          </CharString>
          <CharString index="96">
            -147 -116 -69 -99 -57 vhcurveto
            return
          </CharString>
          <CharString index="97">
            -46 hvcurveto
            -6 hlineto
            -46 -35 -31 -40 return
          </CharString>
          <CharString index="98">
            -48 -46 -59 -59 48 -46 60 hvcurveto
            return
          </CharString>
          <CharString index="99">
            0 -211 320 -95 0 return
          </CharString>
          <CharString index="100">
            -2 -28 -18 -42 hhcurveto
            -27 -26 return
          </CharString>
          <CharString index="101">
            rmoveto
            501 100 -501 hlineto
            return
          </CharString>
          <CharString index="102">
            rmoveto
            274 -774 76 0 283 760 268 -760 75 0 279 750 54 147 28 21 88 15 rlinecurve
            47 -329 -47 vlineto
            111 -14 19 -28 -44 -130 rrcurveto
            -176 -520 -176 525 -43 125 18 29 103 13 rlinecurve
            47 -427 -47 vlineto
            104 -13 17 -30 -42 -124 rrcurveto
            -182 -524 -171 524 -42 126 15 26 112 15 rlinecurve
            47 -457 -47 vlineto
            89 -19 34 -20 42 -120 rrcurveto
            endchar
          </CharString>
          <CharString index="103">
            rmoveto
            -464 328 -290 417 197 198 59 86 112 vhcurveto
            381 vlineto
            93 18 18 134 13 vhcurveto
            46 -515 -46 vlineto
            146 -14 17 -17 -93 vvcurveto
            -378 vlineto
            -50 -63 -104 -30 -126 hhcurveto
            -325 -193 318 390 390 190 258 321 230 143 -120 -238 55 hvcurveto
            43 hlineto
            -13 320 rlineto
            57 -79 -156 49 -235 hhcurveto
            -411 -329 -267 -471 hvcurveto
            endchar
          </CharString>
          <CharString index="104">
            rmoveto
            -466 328 -288 413 207 185 59 56 76 vhcurveto
            13 321 rlineto
            -48 callgsubr
            return
          </CharString>
          <CharString index="105">
            1547 rmoveto
            297 266 rlineto
            6 -210 vlineto
            -145 -271 rlineto
            return
          </CharString>
          <CharString index="106">
            110 107 62 112 109 -90 66 -109 hvcurveto
            -8 -8 -1 -8 hhcurveto
            return
          </CharString>
          <CharString index="107">
            rmoveto
            1025 vlineto
            89 -51 callsubr
            return
          </CharString>
          <CharString index="108">
            30 -40 56 41 rlineto
            239 173 71 120 299 vvcurveto
            endchar
          </CharString>
          <CharString index="109">
            1547 rmoveto
            57 hlineto
            -139 272 rlineto
            -219 -7 hlineto
            return
          </CharString>
          <CharString index="110">
            18 407 rlineto
            -43 hlineto
            -63 -284 -88 -51 -265 -10 return
          </CharString>
          <CharString index="111">
            rmoveto
            154 111 76 115 -8 hvcurveto
            -51 hlineto
            -53 -4 return
          </CharString>
          <CharString index="112">
            1374 1186 247 -98 callsubr
            return
          </CharString>
          <CharString index="113">
            49 46 59 59 -49 46 -60 -60 -9 callsubr
            return
          </CharString>
          <CharString index="114">
            1584 428 167 64 callsubr
            return
          </CharString>
          <CharString index="115">
            -182 -9 hlineto
            221 -347 rlineto
            58 hlineto
            return
          </CharString>
          <CharString index="116">
            -136 -137 -17 1 -18 3 -16 hvcurveto
            return
          </CharString>
          <CharString index="117">
            44 42 53 53 -44 42 -54 hvcurveto
            endchar
          </CharString>
          <CharString index="118">
            2 147 18 -3 callgsubr
            return
          </CharString>
          <CharString index="119">
            rmoveto
            83 62 49 103 hvcurveto
            -51 hlineto
            -46 return
          </CharString>
          <CharString index="120">
            1640 99 722 rmoveto
            return
          </CharString>
          <CharString index="121">
            -123 -105 callsubr
            return
          </CharString>
          <CharString index="122">
            135 callsubr
            33 hhcurveto
            return
          </CharString>
          <CharString index="123">
            678 170 264 rmoveto
            return
          </CharString>
          <CharString index="124">
            rmoveto
            557 vlineto
            155 -1 457 -723 rlineto
            305 43 hlineto
            -74 21 -51 46 -135 212 rrcurveto
            -348 555 271 296 139 153 66 49 113 22 rlinecurve
            47 -432 -47 vlineto
            150 -13 4 -47 -107 -129 rrcurveto
            -358 -428 -155 -1 rlineto
            498 vlineto
            85 20 18 125 16 vhcurveto
            48 -513 43 callsubr
            -107 callsubr
            -38 callsubr
          </CharString>
          <CharString index="125">
            rmoveto
            390 -1201 111 0 377 1187 367 -1187 111 0 381 1166 60 187 35 33 114 15 rlinecurve
            47 -406 -47 vlineto
            150 -20 11 -38 -51 -172 rrcurveto
            -277 -933 -282 962 -46 156 11 28 136 17 rlinecurve
            47 -511 -47 vlineto
            145 -21 17 -27 -49 -164 rrcurveto
            -277 -951 -292 963 -43 145 15 38 140 17 rlinecurve
            47 -534 -47 vlineto
            104 -13 41 -28 52 -159 rrcurveto
            endchar
          </CharString>
          <CharString index="126">
            1592 rmoveto
            156 88 120 121 15 -1 16 -2 14 hvcurveto
            -48 -6 hlineto
            -92 -75 -68 -118 -118 -75 68 92 vhcurveto
            6 -48 vlineto
            92 callgsubr
            return
          </CharString>
          <CharString index="127">
            rmoveto
            -347 -47 hlineto
            119 -20 25 -29 -107 vvcurveto
            -8 -996 -1 -147 -18 -33 -136 -18 rlinecurve
            -47 405 47 vlineto
            -139 15 -19 32 -2 152 rrcurveto
            -19 1026 909 -1272 136 0 8 1199 return
          </CharString>
          <CharString index="128">
            53 7 hlineto
            102 85 75 132 132 85 -75 -102 vhcurveto
            -7 53 vlineto
            3 16 1 18 17 vvcurveto
            137 -98 136 -176 vhcurveto
            return
          </CharString>
          <CharString index="129">
            214 143 129 72 108 54 vhcurveto
            -171 vlineto
            323 39 0 41 -64 17 rlineto
            -57 17 -8 return
          </CharString>
          <CharString index="130">
            rmoveto
            165 131 64 89 65 hvcurveto
            150 callsubr
            -304 204 -202 272 hvcurveto
            endchar
          </CharString>
          <CharString index="131">
            -201 -8 rcurveline
            1205 vlineto
            97 136 callsubr
            -107 callsubr
            vlineto
            return
          </CharString>
          <CharString index="132">
            48 37 37 48 46 -37 38 -48 hvcurveto
            -6 hlineto
            -48 -37 -38 -46 -48 37 -37 48 hvcurveto
            return
          </CharString>
          <CharString index="133">
            257 91 257 -91 0 43 -239 159 -38 0 -237 -159 rlineto
            return
          </CharString>
          <CharString index="134">
            1177 358 988 -105 callsubr
            -85 callsubr
            return
          </CharString>
          <CharString index="135">
            1133 1070 hmoveto
            3 callsubr
            24 callsubr
            return
          </CharString>
          <CharString index="136">
            -57 -270 -92 -40 -323 -12 rrcurveto
            211 callsubr
            endchar
          </CharString>
          <CharString index="137">
            112 -15 17 -17 -66 vvcurveto
            -689 96 callsubr
            return
          </CharString>
          <CharString index="138">
            rmoveto
            131 30 124 115 161 vvcurveto
            108 -53 return
          </CharString>
          <CharString index="139">
            1296 rmoveto
            -114 116 -73 135 135 return
          </CharString>
          <CharString index="140">
            -882 rlineto
            -42 777 vlineto
            8 309 rlineto
            return
          </CharString>
          <CharString index="141">
            520 47 vlineto
            -133 16 -19 21 88 vvcurveto
            return
          </CharString>
          <CharString index="142">
            1811 rmoveto
            514 86 -514 hlineto
            return
          </CharString>
          <CharString index="143">
            1430 746 112 callsubr
            return
          </CharString>
          <CharString index="144">
            55 43 42 53 53 -43 42 -55 hvcurveto
            endchar
          </CharString>
          <CharString index="145">
            -59 -48 -44 -57 -56 48 -44 59 hvcurveto
            endchar
          </CharString>
          <CharString index="146">
            60 48 46 59 59 -48 46 -60 -60 return
          </CharString>
          <CharString index="147">
            43 42 53 53 -43 42 -54 hvcurveto
            endchar
          </CharString>
          <CharString index="148">
            -40 35 -31 46 hvcurveto
            298 hmoveto
            46 return
          </CharString>
          <CharString index="149">
            -45 -35 -31 -40 -40 35 -31 45 hvcurveto
            return
          </CharString>
          <CharString index="150">
            -47 vlineto
            134 -16 18 -20 -89 vvcurveto
            return
          </CharString>
          <CharString index="151">
            vlineto
            -88 -18 -21 -134 -16 vhcurveto
            -47 return
          </CharString>
          <CharString index="152">
            1204 99 callgsubr
            return
          </CharString>
          <CharString index="153">
            -149 -118 -72 -100 -56 vhcurveto
            return
          </CharString>
          <CharString index="154">
            92 487 -88 callsubr
            return
          </CharString>
          <CharString index="155">
            -45 hvcurveto
            -7 hlineto
            -46 -34 -31 -40 return
          </CharString>
          <CharString index="156">
            -54 -44 -42 -53 -53 44 -42 54 return
          </CharString>
          <CharString index="157">
            46 hvcurveto
            299 hmoveto
            45 35 return
          </CharString>
          <CharString index="158">
            -16 vhcurveto
            -47 513 47 vlineto
            return
          </CharString>
          <CharString index="159">
            rmoveto
            -130 -191 -42 -34 -110 -14 rrcurveto
            -47 413 47 vlineto
            -153 20 -2 39 101 164 rrcurveto
            244 381 283 -434 72 -107 -5 -42 -143 -21 rlinecurve
            -47 541 47 vlineto
            -98 21 -43 29 -76 118 rrcurveto
            -356 546 282 407 125 181 42 34 110 14 rlinecurve
            47 -414 -47 vlineto
            153 -20 4 -39 -101 -159 rrcurveto
            -233 -368 -271 416 -75 116 4 34 147 20 rlinecurve
            47 -535 -47 vlineto
            98 -21 37 -30 76 -117 343 -526 rcurveline
            endchar
          </CharString>
          <CharString index="160">
            68 56 21 22 31 hvcurveto
            43 vlineto
            -5 -12 -17 -3 -19 hhcurveto
            -60 -47 35 89 hvcurveto
            506 vlineto
            209 -146 93 -222 -218 -171 -93 -128 -61 49 -45 59 60 47 45 58 53 -38 43 -47 7 vhcurveto
            33 48 67 17 73 hhcurveto
            148 98 -66 -187 hvcurveto
            -97 vlineto
            -213 -47 rlineto
            -271 -59 -111 -91 -153 vvcurveto
            -145 123 -99 163 vhcurveto
            -86 279 rmoveto
            116 68 70 207 45 vhcurveto
            120 27 rlineto
            -342 vlineto
            -65 -43 -72 -36 -90 hhcurveto
            -108 -82 68 117 hvcurveto
            return
          </CharString>
          <CharString index="161">
            rmoveto
            -400 279 -166 292 360 204 220 340 4 vhcurveto
            6 879 rlineto
            -2 15 15 -1 15 hhcurveto
            146 76 62 101 83 -56 80 -76 42 hvcurveto
            -47 hlineto
            19 -25 16 -52 -53 vvcurveto
            -118 -83 -88 -189 vhcurveto
            -105 -47 hlineto
            153 -20 17 -20 -113 vvcurveto
            5 -697 rlineto
            -303 2 -165 -172 -261 hhcurveto
            -245 -181 152 326 hvcurveto
            714 vlineto
            93 20 20 149 20 vhcurveto
            47 -538 -47 vlineto
            133 -20 20 -20 -93 vvcurveto
            endchar
          </CharString>
          <CharString index="162">
            rmoveto
            -367 -47 hlineto
            119 -18 27 -31 -4 -107 rrcurveto
            -35 -1003 -6 -142 -19 -32 -135 -17 rlinecurve
            -47 399 47 vlineto
            -137 17 -16 32 2 144 rrcurveto
            11 1035 505 -1275 88 0 73 206 410 1066 32 -1102 2 -90 -20 -19 -127 -14 rlinecurve
            -47 511 47 vlineto
            -131 15 -17 19 -3 91 rrcurveto
            -34 1100 -2 88 22 21 127 16 rlinecurve
            47 -378 vlineto
            -431 -1204 rlineto
            endchar
          </CharString>
          <CharString index="163">
            325 -177 240 -242 113 vhcurveto
            -5 26 29 -3 29 hhcurveto
            175 121 57 123 87 -61 78 -79 42 hvcurveto
            -47 hlineto
            20 -25 16 -55 -51 vvcurveto
            -123 -79 -82 -157 vhcurveto
            -86 -91 24 -119 hhcurveto
            -437 -284 -333 -413 hvcurveto
            -106 callsubr
            -104 callsubr
            -96 callsubr
          </CharString>
          <CharString index="164">
            rmoveto
            274 -225 144 -379 vhcurveto
            -513 -79 callsubr
            -107 callsubr
            -16 callsubr
            395 145 vlineto
            340 264 147 298 hvcurveto
            -232 -13 rmoveto
            -224 -134 -139 -289 -11 vhcurveto
            -94 -3 0 754 94 -4 rlineto
            289 -11 134 -144 -218 vvcurveto
            endchar
          </CharString>
          <CharString index="165">
            -669 vlineto
            -64 -15 -16 -114 -14 vhcurveto
            -47 -106 callgsubr
            586 vlineto
            56 51 114 36 104 hhcurveto
            40 39 -4 -6 20 hvcurveto
            10 14 9 28 28 vvcurveto
            54 -29 47 -74 -85 -84 -71 -143 -118 vhcurveto
            return
          </CharString>
          <CharString index="166">
            166 131 64 90 65 vhcurveto
            47 vlineto
            -59 -58 -90 -40 -110 hhcurveto
            -227 -151 181 266 -8 hvcurveto
            660 154 callsubr
            -473 -2 rlineto
            227 9 99 120 151 hhcurveto
            return
          </CharString>
          <CharString index="167">
            324 39 0 41 -65 17 rlineto
            -56 17 -8 12 54 vvcurveto
            818 vlineto
            -326 -37 0 -41 66 -19 rlineto
            56 -16 7 -12 -53 vvcurveto
            -610 vlineto
            -68 -41 -76 -37 callgsubr
            return
          </CharString>
          <CharString index="168">
            rmoveto
            -9 -283 rlineto
            43 hlineto
            41 174 55 -84 callgsubr
            -551 33 callsubr
            5 callgsubr
            endchar
          </CharString>
          <CharString index="169">
            628 vlineto
            280 -8 0 78 -280 -10 rlineto
            202 -22 vlineto
            -303 -238 rlineto
            -32 128 vlineto
            return
          </CharString>
          <CharString index="170">
            169 136 134 251 246 -139 140 -163 -169 -136 -62 callgsubr
            return
          </CharString>
          <CharString index="171">
            rmoveto
            542 728 -542 vlineto
            -86 -18 -18 -127 51 callsubr
            -131 16 -21 21 88 vvcurveto
            return
          </CharString>
          <CharString index="172">
            1193 92 480 rmoveto
            -317 191 -182 22 callsubr
            -71 callgsubr
            return
          </CharString>
          <CharString index="173">
            1588 rmoveto
            54 43 43 52 53 -43 42 -54 -55 -43 -42 -53 -52 43 -43 55 hvcurveto
            return
          </CharString>
          <CharString index="174">
            rmoveto
            -329 -37 0 -41 66 -19 rlineto
            58 -60 callgsubr
            190 callsubr
            endchar
          </CharString>
          <CharString index="175">
            1467 rmoveto
            -192 -9 hlineto
            294 -347 rlineto
            59 hlineto
            184 356 rmoveto
            return
          </CharString>
          <CharString index="176">
            -463 355 -283 366 437 285 334 413 return
          </CharString>
          <CharString index="177">
            -136 -115 -74 -114 vhcurveto
            147 hmoveto
            79 43 57 61 61 return
          </CharString>
          <CharString index="178">
            1394 rmoveto
            81 61 56 121 -1 hvcurveto
            -49 hlineto
            -53 -1 return
          </CharString>
          <CharString index="179">
            49 94 89 93 52 -116 -234 -231 -49 -94 -90 hvcurveto
            return
          </CharString>
          <CharString index="180">
            48 94 90 92 52 -116 -234 -231 -48 -94 -90 hvcurveto
            return
          </CharString>
          <CharString index="181">
            1835 rmoveto
            513 -76 0 44 -513 146 rlineto
            return
          </CharString>
          <CharString index="182">
            1473 rmoveto
            -99 -71 -49 -57 -36 hvcurveto
            -44 vlineto
            27 28 return
          </CharString>
          <CharString index="183">
            -91 0 43 -238 159 -38 0 -237 -159 rlineto
            return
          </CharString>
          <CharString index="184">
            1819 rmoveto
            -189 -7 hlineto
            272 -266 rlineto
            return
          </CharString>
          <CharString index="185">
            1111 rmoveto
            220 197 217 -197 60 0 return
          </CharString>
          <CharString index="186">
            67 185 -4 hvcurveto
            -53 hlineto
            -99 -5 -24 -31 -41 hhcurveto
            return
          </CharString>
          <CharString index="187">
            -13 -25 33 hvcurveto
            30 -24 rlineto
            -37 50 42 -24 53 hhcurveto
            return
          </CharString>
          <CharString index="188">
            -49 -46 -59 -59 49 -46 60 hvcurveto
            418 hmoveto
            60 return
          </CharString>
          <CharString index="189">
            hvcurveto
            -6 hlineto
            -48 -37 -38 -48 -46 37 -37 48 hvcurveto
            return
          </CharString>
          <CharString index="190">
            -4 hvcurveto
            -52 hlineto
            -92 -6 -23 -28 -38 hhcurveto
            -28 return
          </CharString>
          <CharString index="191">
            272 -108 0 -205 -272 rlineto
            return
          </CharString>
          <CharString index="192">
            28 -22 rlineto
            -33 46 39 -22 50 hhcurveto
            endchar
          </CharString>
          <CharString index="193">
            7 12 94 callgsubr
            -102 1 hvcurveto
            return
          </CharString>
          <CharString index="194">
            1 -45 rlineto
            5 10 20 3 18 hhcurveto
            68 return
          </CharString>
          <CharString index="195">
            -10 callsubr
            -40 35 -31 46 hvcurveto
            return
          </CharString>
          <CharString index="196">
            hlineto
            -115 -8 110 -76 154 hhcurveto
            return
          </CharString>
          <CharString index="197">
            1568 rmoveto
            86 70 63 174 return
          </CharString>
          <CharString index="198">
            538 47 vlineto
            -9 callgsubr
            return
          </CharString>
          <CharString index="199">
            31 40 40 -35 31 -45 hvcurveto
            -7 hlineto
            return
          </CharString>
          <CharString index="200">
            28 38 hhcurveto
            27 22 -12 -22 31 hvcurveto
            return
          </CharString>
          <CharString index="201">
            -54 -42 -42 -53 -53 42 -42 54 hvcurveto
            return
          </CharString>
          <CharString index="202">
            rmoveto
            59 48 44 56 57 -48 44 -59 return
          </CharString>
          <CharString index="203">
            vlineto
            -66 -17 -16 -112 -15 vhcurveto
            -47 return
          </CharString>
          <CharString index="204">
            vlineto
            -97 -19 -26 -145 -16 vhcurveto
            -47 return
          </CharString>
          <CharString index="205">
            -210 vlineto
            -146 -271 rlineto
            return
          </CharString>
          <CharString index="206">
            -133 16 -19 21 88 vvcurveto
            endchar
          </CharString>
          <CharString index="207">
            586 -19 -93 callsubr
            return
          </CharString>
          <CharString index="208">
            73 115 113 -115 74 return
          </CharString>
          <CharString index="209">
            61 166 -4 hvcurveto
            -49 hlineto
            -89 return
          </CharString>
          <CharString index="210">
            12 23 -32 hvcurveto
            -29 21 rlineto
            34 return
          </CharString>
          <CharString index="211">
            -19 rlineto
            55 -16 8 -12 -53 vvcurveto
            return
          </CharString>
          <CharString index="212">
            -9 callsubr
            419 hmoveto
            return
          </CharString>
          <CharString index="213">
            rmoveto
            272 222 169 253 202 -120 135 -249 87 hvcurveto
            -112 40 rlineto
            -178 63 -104 80 147 vvcurveto
            145 103 103 193 179 130 -112 -225 49 vhcurveto
            44 hlineto
            -13 306 rlineto
            51 -63 -137 48 -183 hhcurveto
            -280 -208 -147 -241 -198 131 -136 236 -81 hvcurveto
            113 -39 rlineto
            193 -68 90 -94 -147 vvcurveto
            -165 -122 -108 -180 -204 -169 118 248 -56 vhcurveto
            -43 hlineto
            13 -319 rlineto
            -64 87 162 -51 204 hhcurveto
            return
          </CharString>
          <CharString index="214">
            rmoveto
            -252 345 202 261 82 108 28 26 97 20 rlinecurve
            47 -351 -47 vlineto
            122 -14 16 -21 -64 -93 rrcurveto
            -168 -237 -172 235 -65 92 13 28 128 10 rlinecurve
            47 -461 -47 vlineto
            71 -14 32 -24 59 -82 rrcurveto
            248 -340 -197 -263 -85 -112 -31 -28 -102 -21 rlinecurve
            -47 356 47 vlineto
            -114 13 -24 23 69 101 rrcurveto
            164 237 175 -240 70 -98 -15 -26 -127 -10 rlinecurve
            -47 466 47 vlineto
            -74 15 -35 24 -61 85 rrcurveto
            endchar
          </CharString>
          <CharString index="215">
            rmoveto
            -150 107 -85 177 -55 vhcurveto
            77 -24 rlineto
            135 -41 57 -52 -94 vvcurveto
            -97 -82 -71 -128 -138 -133 95 185 -38 vhcurveto
            -43 hlineto
            10 -262 rlineto
            -47 67 128 -36 148 hhcurveto
            196 181 108 180 159 -103 92 -176 53 hvcurveto
            -77 23 rlineto
            -125 39 -72 44 94 vvcurveto
            94 78 63 126 130 103 -86 -162 29 vhcurveto
            44 hlineto
            -6 247 rlineto
            34 -50 -107 31 -144 hhcurveto
            -214 -157 -101 -178 hvcurveto
            return
          </CharString>
          <CharString index="216">
            rmoveto
            -77 -68 -32 -35 -34 hvcurveto
            -46 vlineto
            8 13 21 7 30 hhcurveto
            70 39 -39 -107 hvcurveto
            -69 -6 -260 -67 vvcurveto
            -218 122 -149 234 232 203 189 368 278 -91 180 -130 -78 -52 -68 -92 25 vhcurveto
            140 -39 92 -159 -201 vvcurveto
            -232 -110 -117 -161 -156 -75 104 187 vhcurveto
            70 8 256 51 vvcurveto
            160 -67 72 -124 vhcurveto
            endchar
          </CharString>
          <CharString index="217">
            317 -191 181 -215 -141 -130 -70 -107 -53 vhcurveto
            1 663 -67 callsubr
            7 -12 -53 vvcurveto
            -1303 68 vlineto
            104 120 rlineto
            -79 47 104 -60 131 hhcurveto
            263 210 207 310 hvcurveto
            -206 -22 rmoveto
            -257 -126 -166 -184 -99 -80 51 61 -34 vhcurveto
            608 vlineto
            78 44 78 43 105 hhcurveto
            175 121 -161 -257 hvcurveto
            return
          </CharString>
          <CharString index="218">
            1691 845 -24 rmoveto
            411 336 337 410 410 -336 337 -411 -410 -336 -337 -410 -410 336 -337 410 hvcurveto
            48 vmoveto
            -379 -312 315 384 384 312 315 379 380 312 -315 -384 -384 -313 -315 -379 hvcurveto
            return
          </CharString>
          <CharString index="219">
            rmoveto
            447 -354 251 -493 vhcurveto
            -523 -79 callsubr
            -107 callsubr
            -58 callgsubr
            -239 -19 -67 callgsubr
            0 1336 86 callgsubr
            return
          </CharString>
          <CharString index="220">
            rmoveto
            227 -192 122 -278 17 vhcurveto
            217 20 181 106 194 vvcurveto
            223 -207 122 -343 vhcurveto
            -549 -79 callsubr
            -107 callsubr
            194 callsubr
            endchar
          </CharString>
          <CharString index="221">
            rmoveto
            10 -726 rlineto
            -187 2 93 -84 140 hhcurveto
            100 90 42 61 47 hvcurveto
            47 vlineto
            -23 -29 -46 -17 -60 hhcurveto
            -97 -63 58 133 2 hvcurveto
            61 9 524 5 111 vhcurveto
            endchar
          </CharString>
          <CharString index="222">
            1878 rmoveto
            -156 -88 -120 -121 -15 1 -16 2 -14 hvcurveto
            48 7 hlineto
            91 75 68 118 118 75 -68 -91 vhcurveto
            -7 48 76 callgsubr
            return
          </CharString>
          <CharString index="223">
            -356 rlineto
            -161 55 rmoveto
            54 44 42 53 53 -44 42 -54 49 callsubr
            hvcurveto
            464 hmoveto
            54 return
          </CharString>
          <CharString index="224">
            rmoveto
            131 89 68 102 103 -81 65 -113 -76 -55 -33 -35 -27 hvcurveto
            -44 vlineto
            9 18 32 8 34 hhcurveto
            63 49 -31 -50 -53 -49 -30 -65 return
          </CharString>
          <CharString index="225">
            380 687 rmoveto
            169 137 134 252 245 -139 140 -163 -170 -136 -62 callgsubr
            return
          </CharString>
          <CharString index="226">
            -995 vlineto
            -332 -73 -161 -216 -142 vhcurveto
            22 -41 rlineto
            306 154 177 151 341 vvcurveto
            endchar
          </CharString>
          <CharString index="227">
            -48 vlineto
            125 -16 20 -17 -84 vvcurveto
            -1220 -584 1220 vlineto
            84 20 17 125 16 vhcurveto
            48 return
          </CharString>
          <CharString index="228">
            26 26 -40 callgsubr
            -11 43 hhcurveto
            return
          </CharString>
          <CharString index="229">
            -44 hlineto
            -37 -202 -61 -38 -165 -7 rrcurveto
            -256 -9 555 882 rlineto
            43 vlineto
            return
          </CharString>
          <CharString index="230">
            1497 177 1277 rmoveto
            -54 callgsubr
            213 callsubr
            return
          </CharString>
          <CharString index="231">
            -86 -36 -116 hhcurveto
            -115 -87 36 53 -4 hvcurveto
            -50 89 callsubr
            endchar
          </CharString>
          <CharString index="232">
            20 rlineto
            34 -47 -37 22 -51 hhcurveto
            -83 -67 -60 -167 4 hvcurveto
            49 hlineto
            89 return
          </CharString>
          <CharString index="233">
            1813 rmoveto
            513 -75 0 43 -513 146 rlineto
            -428 vmoveto
            return
          </CharString>
          <CharString index="234">
            46 35 30 41 40 -35 31 -10 callsubr
            -41 35 -30 46 hvcurveto
            return
          </CharString>
          <CharString index="235">
            -15 -166 -128 -222 vvcurveto
            -167 103 -124 222 -91 vhcurveto
            return
          </CharString>
          <CharString index="236">
            51 hlineto
            45 -42 callgsubr
            -9 rlineto
            -14 41 39 -9 45 hhcurveto
            return
          </CharString>
          <CharString index="237">
            365 1445 -75 callgsubr
            51 callgsubr
            return
          </CharString>
          <CharString index="238">
            58 hlineto
            163 71 58 65 81 vvcurveto
            83 -74 58 -108 vhcurveto
            return
          </CharString>
          <CharString index="239">
            -89 -72 -67 -185 4 hvcurveto
            53 hlineto
            99 5 24 31 41 hhcurveto
            return
          </CharString>
          <CharString index="240">
            1898 rmoveto
            -71 -52 -29 -27 -29 hvcurveto
            -37 vlineto
            13 21 return
          </CharString>
          <CharString index="241">
            1482 rmoveto
            -220 -197 -217 197 -60 0 return
          </CharString>
          <CharString index="242">
            -114 -76 -55 -33 -35 -26 hvcurveto
            -44 vlineto
            9 17 33 8 return
          </CharString>
          <CharString index="243">
            19 25 146 16 vhcurveto
            47 -533 43 callsubr
            return
          </CharString>
          <CharString index="244">
            -687 rmoveto
            84 hlineto
            853 1444 rlineto
            -84 hlineto
            return
          </CharString>
          <CharString index="245">
            16 22 -29 hvcurveto
            -1 -47 rlineto
            -44 34 72 -31 87 hhcurveto
            return
          </CharString>
          <CharString index="246">
            -10 43 hhcurveto
            -359 -305 rmoveto
            -47 callsubr
            return
          </CharString>
          <CharString index="247">
            1419 -6 callsubr
            100 -400 rmoveto
            return
          </CharString>
          <CharString index="248">
            1171 rmoveto
            89 72 79 callsubr
            -29 return
          </CharString>
          <CharString index="249">
            63 38 -30 -44 -49 -44 -42 -77 -52 hvcurveto
            50 hlineto
            return
          </CharString>
          <CharString index="250">
            43 -57 -78 -82 -43 -53 -61 -61 -43 53 81 vhcurveto
            return
          </CharString>
          <CharString index="251">
            rmoveto
            181 135 99 185 27 hvcurveto
            -181 68 178 -103 190 hhcurveto
            165 129 69 84 63 hvcurveto
            47 vlineto
            -58 -57 -88 -40 -111 hhcurveto
            -225 -153 183 269 -6 hvcurveto
            647 hlineto
            2 17 1 21 20 vvcurveto
            241 -144 162 -250 -138 -113 -55 -95 -76 vhcurveto
            104 -53 -121 46 -138 hhcurveto
            -218 -154 -99 -117 -60 48 -46 59 61 47 47 60 50 -34 39 -45 9 hvcurveto
            29 47 63 18 73 hhcurveto
            144 109 -85 -193 hvcurveto
            -67 vlineto
            -200 -37 rlineto
            -281 -53 -121 -109 -157 vvcurveto
            -150 121 -94 168 vhcurveto
            750 951 rmoveto
            141 66 -124 -185 -10 0 -11 -1 -9 hvcurveto
            -460 -3 rlineto
            225 10 101 117 143 hhcurveto
            -662 -857 rmoveto
            -109 -71 69 116 116 69 82 204 43 hvcurveto
            132 26 rlineto
            -179 vlineto
            -192 -107 -81 -118 vhcurveto
            endchar
          </CharString>
          <CharString index="252">
            1341 428 167 rmoveto
            557 vlineto
            155 -1 457 -723 rlineto
            305 43 hlineto
            -74 21 -51 46 -135 212 rrcurveto
            -348 555 271 296 139 153 66 49 113 22 rlinecurve
            47 -432 -47 vlineto
            150 -13 4 -47 -107 -129 rrcurveto
            -358 -428 -155 -1 rlineto
            498 vlineto
            85 20 18 125 16 vhcurveto
            48 -513 43 callsubr
            -107 callsubr
            -41 callsubr
            return
          </CharString>
          <CharString index="253">
            rmoveto
            -943 hlineto
            -612 -1171 -95 -181 -42 -30 -112 -15 rlinecurve
            -47 417 47 vlineto
            -138 18 -22 41 85 168 rrcurveto
            175 348 458 0 3 -455 1 -86 -19 -18 -127 -16 rlinecurve
            -47 1027 vlineto
            15 388 rlineto
            -44 hlineto
            -50 -268 -74 -43 -291 -13 rrcurveto
            -231 -10 -5 659 248 -4 108 -3 24 -42 30 -156 rlinecurve
            40 hlineto
            -3 464 rlineto
            -41 hlineto
            -30 -159 -23 -39 -106 -3 rrcurveto
            -247 -4 -4 623 204 -9 260 -11 83 -52 54 -221 rlinecurve
            44 hlineto
            -916 292 rmoveto
            65 hlineto
            5 -705 rlineto
            -426 hlineto
            endchar
          </CharString>
          <CharString index="254">
            rmoveto
            240 -195 148 -379 vhcurveto
            -529 -47 hlineto
            134 -15 18 -19 -91 vvcurveto
            -1100 vlineto
            -87 -18 -19 -134 -19 vhcurveto
            -47 513 47 vlineto
            -125 18 -20 18 84 vvcurveto
            491 234 vlineto
            352 -658 rlineto
            283 43 hlineto
            -61 17 -46 36 -122 225 rrcurveto
            -204 386 176 44 124 128 -1 177 rlinecurve
            -223 -16 rmoveto
            -209 -136 -108 -236 -7 vhcurveto
            -140 -4 0 678 112 -4 rlineto
            284 -9 116 -138 -199 vvcurveto
            return
          </CharString>
          <CharString index="255">
            rmoveto
            316 -191 182 -215 -144 -128 -72 -109 -54 vhcurveto
            173 vlineto
            -323 -37 0 -41 -13 callsubr
            -1129 vlineto
            -64 -15 -16 -114 -14 vhcurveto
            -47 467 47 vlineto
            -127 15 -14 15 76 vvcurveto
            405 vlineto
            -69 49 93 -48 117 hhcurveto
            261 209 208 309 hvcurveto
            -206 -22 rmoveto
            -256 -125 -167 -183 -99 -10 callgsubr
          </CharString>
          <CharString index="256">
            273 43 hlineto
            -67 14 -48 39 -77 125 rrcurveto
            -257 419 111 104 153 142 45 25 101 20 rlinecurve
            47 -385 -47 vlineto
            118 -18 11 -30 -83 -91 rrcurveto
            -205 -226 -127 -2 0 918 -67 callsubr
            -44 callsubr
            -97 callsubr
            368 vlineto
            128 -1 rlineto
            return
          </CharString>
          <CharString index="257">
            48 vlineto
            -58 -58 -90 -40 -108 hhcurveto
            -214 -160 168 276 240 132 158 198 74 60 -18 -34 41 hvcurveto
            -55 -45 -47 -59 -60 47 -47 60 60 48 47 64 118 -108 106 -219 -281 -219 -209 -300 return
          </CharString>
          <CharString index="258">
            13 -13 16 63 vvcurveto
            638 vlineto
            69 41 72 48 108 hhcurveto
            140 78 -85 -168 hvcurveto
            -502 vlineto
            -63 -13 -16 -108 -13 vhcurveto
            -47 439 47 vlineto
            -108 13 -13 16 63 vvcurveto
            193 callsubr
            endchar
          </CharString>
          <CharString index="259">
            1171 rmoveto
            90 72 67 185 -5 hvcurveto
            -53 hlineto
            -99 -4 -25 -31 -41 hhcurveto
            -28 -24 13 26 -33 hvcurveto
            -30 23 rlineto
            37 -50 -40 24 -55 hhcurveto
            132 callsubr
            29 23 80 callsubr
            return
          </CharString>
          <CharString index="260">
            -23 12 23 -31 hvcurveto
            -29 21 rlineto
            34 -48 -39 23 -53 hhcurveto
            -86 -69 -63 -174 4 hvcurveto
            53 hlineto
            92 4 24 29 38 hhcurveto
            28 23 -13 -23 32 hvcurveto
            29 -21 rlineto
            -34 47 39 -23 52 hhcurveto
            return
          </CharString>
          <CharString index="261">
            hlineto
            2 15 2 22 21 vvcurveto
            244 -147 164 -257 -278 -182 -213 -296 vhcurveto
            459 445 rmoveto
            142 73 -127 -186 -12 0 -10 -1 -10 hvcurveto
            return
          </CharString>
          <CharString index="262">
            13 53 vvcurveto
            1312 vlineto
            -326 -38 0 -41 66 -18 rlineto
            56 -17 7 -12 -53 vvcurveto
            -423 vlineto
            69 -50 -92 47 -117 hhcurveto
            -261 -208 -207 -309 hvcurveto
            return
          </CharString>
          <CharString index="263">
            -1 -28 -18 -43 hhcurveto
            -26 -26 86 callsubr
            50 hlineto
            45 1 28 18 43 hhcurveto
            27 26 -6 -13 40 hvcurveto
            29 -9 rlineto
            -14 40 39 -9 45 hhcurveto
            endchar
          </CharString>
          <CharString index="264">
            1864 rmoveto
            -86 -64 -41 -48 -31 hvcurveto
            -38 vlineto
            23 25 43 17 49 hhcurveto
            142 callsubr
            145 61 50 55 68 vvcurveto
            70 -64 50 -97 vhcurveto
            return
          </CharString>
          <CharString index="265">
            258 125 166 183 99 84 -49 -63 32 vhcurveto
            -608 vlineto
            -78 -44 -78 -44 -105 hhcurveto
            -175 -121 162 256 hvcurveto
            return
          </CharString>
          <CharString index="266">
            -7 hlineto
            -92 -79 -68 -123 -123 -79 68 92 vhcurveto
            7 -49 vlineto
            -3 -15 -1 -16 -15 vvcurveto
            -124 91 -122 164 vhcurveto
            endchar
          </CharString>
          <CharString index="267">
            64 48 -31 -50 -53 -48 -30 -66 -56 -48 17 24 -34 hvcurveto
            -46 vlineto
            -41 33 72 -33 83 hhcurveto
            endchar
          </CharString>
          <CharString index="268">
            -72 -161 -217 -142 vhcurveto
            23 -41 rlineto
            306 154 176 151 341 vvcurveto
            endchar
          </CharString>
          <CharString index="269">
            1568 rmoveto
            86 69 63 174 -4 hvcurveto
            -52 hlineto
            -92 23 callgsubr
            -23 52 hhcurveto
            return
          </CharString>
          <CharString index="270">
            1437 rmoveto
            500 -88 0 51 -500 171 rlineto
            -1 -417 -6 callsubr
            return
          </CharString>
          <CharString index="271">
            1437 rmoveto
            134 vlineto
            -500 -171 rlineto
            -51 vlineto
            -1 -195 -6 callsubr
            return
          </CharString>
          <CharString index="272">
            107 115 64 -41 40 -55 -55 -38 -41 -51 -52 38 -39 49 8 8 2 2 7 hvcurveto
            -55 return
          </CharString>
          <CharString index="273">
            -16 hvcurveto
            41 -28 rlineto
            108 24 64 32 67 vvcurveto
            67 -79 36 -81 vhcurveto
            -471 -399 rmoveto
            return
          </CharString>
          <CharString index="274">
            -71 8 -10 11 -1 47 -16 540 rcurveline
            47 11 11 69 9 vhcurveto
            35 -253 vlineto
            -203 return
          </CharString>
          <CharString index="275">
            486 116 187 38 34 103 16 rlinecurve
            47 -398 -47 vlineto
            148 -18 7 -42 return
          </CharString>
          <CharString index="276">
            388 261 60 -261 206 vlineto
            -197 -23 rlineto
            -183 -129 vlineto
            endchar
          </CharString>
          <CharString index="277">
            -36 -94 hhcurveto
            -95 -72 36 55 -38 hvcurveto
            -2 8 8 -2 8 hhcurveto
            48 39 39 52 51 return
          </CharString>
          <CharString index="278">
            194 484 15 -541 1 -45 -11 -11 -68 -8 rlinecurve
            -36 316 36 vlineto
            return
          </CharString>
          <CharString index="279">
            rmoveto
            110 107 62 112 109 -90 66 -109 hvcurveto
            -8 -8 -1 -7 hhcurveto
            return
          </CharString>
          <CharString index="280">
            vlineto
            -63 -14 -16 -107 -13 vhcurveto
            -47 447 47 vlineto
            -114 15 -15 16 66 vvcurveto
            return
          </CharString>
          <CharString index="281">
            440 rmoveto
            270 -210 150 -359 vhcurveto
            -184 399 hlineto
            97 return
          </CharString>
          <CharString index="282">
            63 49 -31 -50 -53 -48 -30 -66 -56 -48 17 24 -34 -36 callgsubr
          </CharString>
          <CharString index="283">
            54 1216 rmoveto
            129 -1072 hlineto
            -66 -17 -16 -112 -15 vhcurveto
            -47 return
          </CharString>
          <CharString index="284">
            41 136 18 rlinecurve
            47 -536 -47 vlineto
            100 -14 35 -27 99 -160 rrcurveto
            return
          </CharString>
          <CharString index="285">
            -225 84 -183 128 -128 vhcurveto
            -128 -147 48 -42 127 146 rlineto
            -108 130 165 -59 167 hhcurveto
            437 285 334 413 225 -84 182 -129 128 hvcurveto
            128 147 -47 42 -128 -146 rlineto
            108 -130 -165 59 -167 hhcurveto
            -437 -284 -333 -413 hvcurveto
            -106 callsubr
            333 158 127 -83 -135 85 vhcurveto
            -750 -861 rlineto
            -58 116 -31 144 158 vvcurveto
            960 -33 rmoveto
            -370 -136 -292 -332 -158 -127 83 135 -85 vhcurveto
            750 861 rlineto
            57 -115 31 -144 -158 vvcurveto
            endchar
          </CharString>
          <CharString index="286">
            rmoveto
            149 95 89 196 101 hvcurveto
            -206 47 62 -73 116 hhcurveto
            69 64 35 47 39 hvcurveto
            43 vlineto
            -12 -19 -24 -7 -25 hhcurveto
            -71 -48 59 286 -79 hvcurveto
            -10 33 236 507 rlineto
            -205 hlineto
            -23 -112 -31 -121 -34 -118 rrcurveto
            243 -65 -94 126 -202 hhcurveto
            -248 -159 -219 -287 -333 172 -176 187 hvcurveto
            -147 522 rmoveto
            256 77 171 129 122 56 -117 -258 49 vhcurveto
            38 -189 rlineto
            -191 -70 -74 -98 -112 hhcurveto
            -134 -81 178 248 hvcurveto
            endchar
          </CharString>
          <CharString index="287">
            rmoveto
            281 220 209 301 146 -50 122 -84 88 hvcurveto
            88 98 -46 41 -87 -98 rlineto
            68 -84 -109 38 -120 hhcurveto
            -281 -220 -208 -301 -147 51 -124 85 -88 hvcurveto
            -84 -94 45 -40 83 94 rlineto
            -67 84 108 -38 120 hhcurveto
            -282 519 rmoveto
            263 105 169 177 95 79 -56 -96 52 vhcurveto
            -469 -526 rlineto
            -25 68 -14 84 94 vvcurveto
            291 -456 rmoveto
            -94 -79 55 95 -52 hvcurveto
            469 525 rlineto
            25 -68 14 -82 -92 vvcurveto
            -263 -106 -170 -177 vhcurveto
            endchar
          </CharString>
          <CharString index="288">
            rmoveto
            -278 132 -157 183 165 112 135 157 33 vhcurveto
            25 -163 104 -130 183 1 rrcurveto
            206 152 197 317 289 -126 212 -140 -79 -51 -64 -99 26 hvcurveto
            159 -41 124 -177 -220 vvcurveto
            -186 -81 -116 -128 -139 -78 131 286 vhcurveto
            185 -190 -185 vlineto
            -303 -72 -114 -121 -123 -69 120 233 243 76 182 132 92 vhcurveto
            -29 31 rlineto
            -237 -83 -149 -227 -268 vvcurveto
            endchar
          </CharString>
          <CharString index="289">
            rmoveto
            215 150 85 112 76 hvcurveto
            46 vlineto
            -64 -71 -124 -48 -152 hhcurveto
            -163 -104 61 106 107 100 67 209 hvcurveto
            98 hlineto
            -23 143 rlineto
            -47 hlineto
            -242 -103 57 112 99 84 69 165 94 78 -16 -35 53 hvcurveto
            -42 -10 -34 -38 -50 vvcurveto
            -50 40 -53 65 57 49 45 62 119 -122 89 -250 -282 -129 -121 -153 -144 128 -102 206 -4 vhcurveto
            -230 -4 -127 -88 -138 vvcurveto
            -158 146 -103 232 vhcurveto
            endchar
          </CharString>
          <CharString index="290">
            rmoveto
            -75 58 -58 84 148 93 120 253 128 vhcurveto
            444 879 65 129 28 22 125 18 rlinecurve
            47 -420 -47 vlineto
            175 -21 8 -14 -64 -134 rrcurveto
            -318 -666 -351 674 -66 127 4 17 174 17 rlinecurve
            47 -559 -47 vlineto
            119 -17 27 -21 60 -112 rrcurveto
            479 -896 -70 -141 -55 -94 -64 -47 rlinecurve
            3 10 2 12 11 vvcurveto
            74 -58 61 -70 -72 -57 -57 -71 vhcurveto
            endchar
          </CharString>
          <CharString index="291">
            217 -113 168 -174 69 hvcurveto
            -9 39 44 -4 45 hhcurveto
            157 101 61 102 82 -57 78 -78 41 hvcurveto
            -47 hlineto
            19 -25 16 -53 -52 vvcurveto
            -112 -81 -75 -140 vhcurveto
            -77 -59 16 -105 hhcurveto
            -268 -221 -211 -299 -305 205 -200 289 hvcurveto
            10 65 rmoveto
            -176 -113 182 269 268 99 167 180 175 114 -182 -270 -268 -100 -166 -179 hvcurveto
            return
          </CharString>
          <CharString index="292">
            1240 -746 rmoveto
            17 388 rlineto
            -42 hlineto
            -57 -270 -92 -40 -323 -12 rrcurveto
            -334 -12 829 1347 rlineto
            43 -1038 vlineto
            -17 -347 rlineto
            43 hlineto
            50 221 65 51 328 11 rrcurveto
            323 10 -826 -1347 rlineto
            -43 vlineto
            -405 727 -67 callgsubr
            0 1336 86 callgsubr
            endchar
          </CharString>
          <CharString index="293">
            rmoveto
            333 vlineto
            128 -1 306 -471 rlineto
            273 43 hlineto
            -67 70 callgsubr
            154 161 42 27 100 19 rlinecurve
            47 -376 -47 vlineto
            119 -18 11 -36 -89 -103 rrcurveto
            -202 -245 -126 -2 rlineto
            312 vlineto
            -34 callgsubr
            -97 callsubr
            endchar
          </CharString>
          <CharString index="294">
            -459 348 -281 363 -6 vhcurveto
            -90 -81 -58 -96 -96 vvcurveto
            -112 84 -73 108 77 66 36 50 29 vhcurveto
            47 vlineto
            -19 -18 -30 -14 -34 hhcurveto
            -75 -55 79 104 68 18 64 29 44 hvcurveto
            414 20 267 326 400 vvcurveto
            -103 callsubr
            -106 callsubr
            333 303 188 -307 -387 -370 -136 -292 -332 -304 -188 308 387 vhcurveto
            endchar
          </CharString>
          <CharString index="295">
            rmoveto
            177 -124 111 -318 vhcurveto
            -145 234 hlineto
            76 15 15 126 15 vhcurveto
            47 -467 -47 vlineto
            30 callsubr
            493 vlineto
            246 174 118 185 hvcurveto
            -464 231 rmoveto
            176 -3 87 -90 -149 vvcurveto
            -147 -110 -81 -153 -5 vhcurveto
            -123 -5 rlineto
            481 vlineto
            endchar
          </CharString>
          <CharString index="296">
            204 hlineto
            109 -5 649 -1 vvcurveto
            82 31 75 49 104 hhcurveto
            152 74 -83 -256 -270 -6 -357 -10 -382 hvcurveto
            204 hlineto
            -3 1072 rlineto
            297 -1 -145 87 -184 hhcurveto
            -153 -108 -78 -106 -39 hvcurveto
            116 -9 -72 60 -99 hhcurveto
            -73 -62 -30 -37 -37 hvcurveto
            -47 vlineto
            9 13 20 6 25 hhcurveto
            80 42 -46 -135 -2 hvcurveto
            -71 -12 -531 -4 -106 vhcurveto
            endchar
          </CharString>
          <CharString index="297">
            193 149 113 72 101 57 vhcurveto
            -164 vlineto
            328 39 0 41 -68 17 rlineto
            -58 16 -8 13 54 vvcurveto
            785 vlineto
            -2 14 15 -1 16 hhcurveto
            103 73 48 93 hvcurveto
            1 80 -60 83 -79 40 rrcurveto
            -46 hlineto
            18 -25 16 -52 -52 vvcurveto
            -115 -76 -75 -214 -18 vhcurveto
            -109 -10 0 -39 66 -19 rlineto
            58 -16 7 -12 -53 vvcurveto
            -610 vlineto
            -68 -40 -77 -37 callgsubr
            return
          </CharString>
          <CharString index="298">
            66 16 17 113 15 vhcurveto
            47 -446 -47 vlineto
            107 -14 13 -15 -63 vvcurveto
            -782 -408 782 vlineto
            63 13 16 108 13 vhcurveto
            47 -439 -47 vlineto
            107 -13 13 -16 -63 vvcurveto
            -782 -407 782 vlineto
            63 13 15 107 14 vhcurveto
            47 -446 -47 vlineto
            30 callsubr
            return
          </CharString>
          <CharString index="299">
            rmoveto
            755 vlineto
            267 -8 0 78 -267 -9 rlineto
            228 vlineto
            163 51 65 83 14 13 -1 -3 12 vhcurveto
            -28 -15 -19 -29 -35 vvcurveto
            -53 39 -40 53 50 41 41 52 82 -71 65 -132 -172 -131 -120 -232 vhcurveto
            -160 vlineto
            -129 -45 rlineto
            -32 129 -759 vlineto
            -64 -15 -16 -114 -14 vhcurveto
            -47 468 -92 callgsubr
            endchar
          </CharString>
          <CharString index="300">
            565 vlineto
            31 -3 28 -4 25 vhcurveto
            64 42 75 42 104 hhcurveto
            143 80 -85 -168 hvcurveto
            -502 vlineto
            -63 -13 -15 -108 -14 vhcurveto
            -47 447 47 vlineto
            -112 15 -17 16 66 vvcurveto
            540 vlineto
            207 -134 105 -194 -147 -121 -72 -102 -57 vhcurveto
            113 -42 -111 61 -150 hhcurveto
            -149 -112 -72 -100 -56 hvcurveto
            return
          </CharString>
          <CharString index="301">
            549 vlineto
            330 292 132 281 hvcurveto
            -296 665 rmoveto
            -182 -113 -106 -210 -1 vhcurveto
            -184 601 hlineto
            130 -5 rlineto
            274 -8 103 -123 -176 vvcurveto
            64 -680 rmoveto
            -219 -164 -112 -277 -8 vhcurveto
            -130 -5 0 680 184 -1 rlineto
            249 -2 138 -127 -206 vvcurveto
            return
          </CharString>
          <CharString index="302">
            441 -1201 113 0 430 1166 69 187 30 33 114 15 rlinecurve
            47 -407 -47 vlineto
            151 -20 16 -39 -59 -171 rrcurveto
            -325 -944 -343 974 -51 144 22 39 139 17 rlinecurve
            47 -538 -47 vlineto
            109 -15 33 -33 56 -152 rrcurveto
            return
          </CharString>
          <CharString index="303">
            rmoveto
            266 215 200 308 309 -191 198 -285 -272 -215 -199 -309 -308 191 -199 291 hvcurveto
            5 65 rmoveto
            -172 -101 191 265 262 95 168 173 165 102 -191 -265 -262 -94 -168 -168 hvcurveto
            endchar
          </CharString>
          <CharString index="304">
            301 687 rmoveto
            150 133 82 146 18 callgsubr
            36 76 hhcurveto
            81 50 -43 -70 -78 -71 -51 63 callgsubr
            -64 -106 -100 -72 -60 -90 -47 -40 14 23 -27 hvcurveto
            31 4 24 28 33 vvcurveto
            39 -31 29 -38 -38 -31 -29 -40 -85 97 -68 133 vhcurveto
            return
          </CharString>
          <CharString index="305">
            311 -774 75 0 300 749 59 146 24 23 89 15 rlinecurve
            47 -344 -47 vlineto
            125 -16 21 -26 -47 -130 rrcurveto
            -196 -536 -203 541 -46 126 21 25 125 16 rlinecurve
            47 -477 -47 vlineto
            89 -18 26 -23 48 -118 rrcurveto
            return
          </CharString>
          <CharString index="306">
            1 hlineto
            -87 -86 -49 -96 -96 vvcurveto
            -115 1 87 -70 98 hhcurveto
            84 68 36 47 31 hvcurveto
            -1 46 rlineto
            -19 -17 -30 -12 -35 hhcurveto
            -74 -59 82 123 57 13 58 24 47 hvcurveto
            256 25 194 202 282 vvcurveto
            -99 callsubr
            vhcurveto
            -31 callgsubr
          </CharString>
          <CharString index="307">
            1320 1231 413 rmoveto
            227 -192 122 -278 17 vhcurveto
            217 20 181 106 194 vvcurveto
            223 -207 122 -343 vhcurveto
            -549 -79 callsubr
            -107 callsubr
            194 callsubr
            return
          </CharString>
          <CharString index="308">
            -23 10 vhcurveto
            10 23 28 5 29 hhcurveto
            81 50 -35 -92 hvcurveto
            -45 vlineto
            -116 -24 rlineto
            -156 -32 -61 -53 -78 vvcurveto
            -75 66 -53 67 callgsubr
            -162 vlineto
            -29 -19 -35 -16 -44 hhcurveto
            -52 -39 31 54 hvcurveto
            endchar
          </CharString>
          <CharString index="309">
            -477 rmoveto
            84 74 30 51 34 hvcurveto
            46 vlineto
            -23 -21 -36 -13 -42 hhcurveto
            -58 -54 43 84 89 53 86 151 113 hvcurveto
            -50 -1 rlineto
            -227 -124 -83 -110 -110 vvcurveto
            -100 77 -61 98 vhcurveto
            endchar
          </CharString>
          <CharString index="310">
            519 vlineto
            249 -4 107 -3 25 -40 27 -158 rlinecurve
            41 464 -41 hlineto
            -32 -160 -22 -37 -105 -3 rrcurveto
            -249 -4 0 630 213 -8 257 -11 83 -51 51 -223 rlinecurve
            43 hlineto
            endchar
          </CharString>
          <CharString index="311">
            -148 7 -641 rcurveline
            -310 3 -167 -177 -259 hhcurveto
            -245 -181 155 333 hvcurveto
            712 vlineto
            89 18 20 134 16 vhcurveto
            47 -513 -47 vlineto
            125 -16 20 -18 -86 vvcurveto
            return
          </CharString>
          <CharString index="312">
            -55 hhcurveto
            -89 -72 -67 -185 5 hvcurveto
            53 hlineto
            99 4 24 31 41 hhcurveto
            69 callgsubr
            return
          </CharString>
          <CharString index="313">
            1783 rmoveto
            45 35 30 41 40 -35 31 48 callsubr
            -41 34 -30 50 callsubr
            30 41 40 -35 31 -45 hvcurveto
            -7 hlineto
            -45 -35 -31 -40 -41 35 -30 45 hvcurveto
            return
          </CharString>
          <CharString index="314">
            -295 193 -199 260 -12 hvcurveto
            -115 -152 87 callsubr
            54 -29 -56 -54 -51 -31 -64 -50 -53 16 22 -29 hvcurveto
            -1 -47 rlineto
            -44 33 72 -31 87 hhcurveto
            endchar
          </CharString>
          <CharString index="315">
            -171 rlineto
            -51 vlineto
            277 -291 rmoveto
            121 77 48 74 74 -77 48 -121 hvcurveto
            -55 hlineto
            -118 -80 -48 -74 -74 80 -48 118 hvcurveto
            52 52 rmoveto
            -49 hlineto
            -43 return
          </CharString>
          <CharString index="316">
            135 116 67 106 105 -116 67 -135 -135 -116 -67 -105 vhcurveto
            147 hmoveto
            71 43 50 61 61 43 -50 -71 -73 -43 -48 -61 -61 -43 49 72 vhcurveto
            endchar
          </CharString>
          <CharString index="317">
            47 vlineto
            -59 -58 -90 -40 -110 hhcurveto
            -227 -151 181 266 -8 hvcurveto
            660 154 callsubr
            -473 -2 rlineto
            227 9 99 120 151 hhcurveto
            endchar
          </CharString>
          <CharString index="318">
            -333 -12 828 1347 rlineto
            43 -1037 vlineto
            -17 -347 rlineto
            43 hlineto
            49 221 65 51 328 11 rrcurveto
            324 10 -827 -1347 rlineto
            -43 vlineto
            return
          </CharString>
          <CharString index="319">
            367 1465 rmoveto
            -131 -30 -125 -116 -161 vvcurveto
            -108 54 -76 85 85 47 76 88 vhcurveto
            -82 6 -59 51 74 vvcurveto
            76 62 56 81 23 vhcurveto
            return
          </CharString>
          <CharString index="320">
            361 202 224 347 5 vhcurveto
            7 654 2 146 19 34 131 15 rlinecurve
            48 -401 -47 vlineto
            142 -17 17 -32 3 204 callsubr
            return
          </CharString>
          <CharString index="321">
            176 98 136 138 17 -1 17 -3 17 hvcurveto
            -53 -8 hlineto
            -102 -85 -75 -132 -132 -85 75 102 vhcurveto
            8 -53 vlineto
            -3 -17 -1 -17 -17 vvcurveto
            -138 return
          </CharString>
        <CharString name=".notdef">
          2048 155 -494 rmoveto
          99 2444 -99 hlineto
          410 -2444 rmoveto
          99 2444 -99 hlineto
          409 -47 callgsubr
          410 -47 callgsubr
          410 -47 callgsubr
          endchar
        </CharString>
        <CharString name=".null">
          0 endchar
        </CharString>
        <CharString name="A">
          5 callsubr
          -95 callsubr
        </CharString>
        <CharString name="AE">
          1929 1789 1444 146 callsubr
        </CharString>
        <CharString name="AEacute">
          1929 1208 -82 callsubr
          -78 callsubr
          639 -104 146 callsubr
        </CharString>
        <CharString name="AEmacron">
          1929 1003 -55 callgsubr
          786 -275 146 callsubr
        </CharString>
        <CharString name="Aacute">
          1374 644 -82 callsubr
          98 callsubr
          600 -1301 -98 callsubr
          -95 callsubr
        </CharString>
        <CharString name="Abreve">
          1374 683 19 callsubr
          503 -1345 -98 callsubr
          -95 callsubr
        </CharString>
        <CharString name="Abreveacute">
          1374 940 78 callgsubr
          257 -222 4 callsubr
          -85 -36 -117 hhcurveto
          -115 -87 36 53 -3 hvcurveto
          -51 89 callsubr
          503 -1290 -98 callsubr
          -95 callsubr
        </CharString>
        <CharString name="Abrevecyrillic">
          1374 683 1595 rmoveto
          177 106 165 callsubr
          -37 -73 170 callsubr
          -38 41 -55 -55 -100 callgsubr
          503 -1348 -98 callsubr
          -95 callsubr
        </CharString>
        <CharString name="Abrevedotbelow">
          1374 683 19 callsubr
          503 -1345 -98 callsubr
          91 callsubr
          -201 -772 rmoveto
          49 callsubr
          37 callsubr
        </CharString>
        <CharString name="Abrevegrave">
          1374 427 74 callsubr
          256 -412 4 callsubr
          -85 -36 -117 hhcurveto
          -115 -87 36 53 -3 hvcurveto
          -51 89 callsubr
          503 -1290 -98 callsubr
          -95 callsubr
        </CharString>
        <CharString name="Abrevehookabove">
          1374 677 1945 rmoveto
          -75 -55 -30 -26 -30 hvcurveto
          -37 vlineto
          12 22 40 12 44 hhcurveto
          57 37 -22 -35 -34 -32 -23 -64 -16 hvcurveto
          42 -28 rlineto
          113 24 66 57 callgsubr
          -85 -36 -117 hhcurveto
          -115 -87 36 53 -3 hvcurveto
          -51 89 callsubr
          503 -1290 -98 callsubr
          -95 callsubr
        </CharString>
        <CharString name="Abrevetilde">
          1374 795 1785 rmoveto
          84 61 48 103 hvcurveto
          -50 hlineto
          -46 -7 callsubr
          22 callgsubr
          51 hlineto
          46 29 17 43 26 26 -6 -13 40 vhcurveto
          29 -9 rlineto
          -13 41 38 -9 45 hhcurveto
          -112 -248 4 callsubr
          -85 -36 -117 hhcurveto
          -115 -87 36 53 -3 hvcurveto
          -51 89 callsubr
          503 -1290 -98 callsubr
          -95 callsubr
        </CharString>
        <CharString name="Acaron">
          1374 894 -72 callsubr
          -55 callsubr
          236 -1584 -98 callsubr
          -95 callsubr
        </CharString>
        <CharString name="Acircumflex">
          1374 491 -63 callsubr
          -54 callsubr
          751 -1300 -98 callsubr
          -95 callsubr
        </CharString>
        <CharString name="Acircumflexacute">
          1374 940 27 callgsubr
          257 91 256 76 callsubr
          759 -1295 -98 callsubr
          -95 callsubr
        </CharString>
        <CharString name="Acircumflexdotbelow">
          1374 491 -63 callsubr
          -54 callsubr
          751 -1300 -98 callsubr
          91 callsubr
          -201 -772 rmoveto
          49 callsubr
          37 callsubr
        </CharString>
        <CharString name="Acircumflexgrave">
          1374 427 126 callsubr
          257 91 256 76 callsubr
          759 -1295 -98 callsubr
          -95 callsubr
        </CharString>
        <CharString name="Acircumflexhookabove">
          1374 898 133 callsubr
          48 callgsubr
          257 91 256 76 callsubr
          759 -1295 -98 callsubr
          -95 callsubr
        </CharString>
        <CharString name="Acircumflextilde">
          1374 795 1763 rmoveto
          84 61 49 102 hvcurveto
          -50 hlineto
          -45 -7 callsubr
          -101 callgsubr
          51 hlineto
          46 29 18 43 26 26 -6 -13 40 vhcurveto
          29 -10 rlineto
          -13 41 38 -9 45 hhcurveto
          -368 -264 rmoveto
          257 91 256 76 callsubr
          759 -1295 -98 callsubr
          -95 callsubr
        </CharString>
        <CharString name="Acyrillic">
          5 callsubr
          -95 callsubr
        </CharString>
        <CharString name="Adblgrave">
          1374 479 1819 rmoveto
          -188 -7 hlineto
          271 -266 rlineto
          60 hlineto
          178 273 rmoveto
          -178 -7 hlineto
          200 -266 rlineto
          57 hlineto
          307 -1299 -98 callsubr
          -95 callsubr
        </CharString>
        <CharString name="Adieresis">
          1374 525 -32 callsubr
          -68 callsubr
          -29 callsubr
          -68 callsubr
          344 -1340 -98 callsubr
          -95 callsubr
        </CharString>
        <CharString name="Adieresismacron">
          1374 426 35 callsubr
          114 -336 rmoveto
          46 -71 callsubr
          -10 callsubr
          41 callsubr
          -71 callsubr
          -46 hvcurveto
          -6 hlineto
          42 callsubr
          360 -1314 -98 callsubr
          -95 callsubr
        </CharString>
        <CharString name="Adotaccent">
          1374 683 -69 callsubr
          -62 callsubr
          503 -1341 -98 callsubr
          -95 callsubr
        </CharString>
        <CharString name="Adotbelow">
          5 callsubr
          91 callsubr
          -201 -772 rmoveto
          49 callsubr
          37 callsubr
        </CharString>
        <CharString name="Adotmacron">
          1374 426 60 callgsubr
          49 39 33 43 43 -39 34 -49 -49 -38 -34 -43 -43 38 -33 49 hvcurveto
          503 -1309 -98 callsubr
          -95 callsubr
        </CharString>
        <CharString name="Agrave">
          1374 740 2 callsubr
          747 -1565 -98 callsubr
          -95 callsubr
        </CharString>
        <CharString name="Ahookabove">
          1374 704 -87 callgsubr
          142 callsubr
          145 61 50 55 68 vvcurveto
          70 -64 50 -97 vhcurveto
          482 -1617 -98 callsubr
          -95 callsubr
        </CharString>
        <CharString name="Ainvertedbreve">
          1374 683 115 callsubr
          503 -1631 -98 callsubr
          -95 callsubr
        </CharString>
        <CharString name="Alphagreek">
          5 callsubr
          -95 callsubr
        </CharString>
        <CharString name="Alphatonosgreek">
          5 callsubr
          538 47 vlineto
          -110 15 -33 33 -56 152 rrcurveto
          -929 841 -66 callgsubr
          187 -514 rmoveto
          223 646 228 -646 rlineto
          endchar
        </CharString>
        <CharString name="Amacron">
          1374 439 -30 callsubr
          747 -1472 -98 callsubr
          -95 callsubr
        </CharString>
        <CharString name="Aogonek">
          5 callsubr
          259 vlineto
          -96 -85 -64 -105 -106 vvcurveto
          -113 83 -73 108 78 66 36 50 29 vhcurveto
          47 vlineto
          -19 -18 -29 -14 -36 hhcurveto
          -73 -56 82 108 76 20 71 34 45 hvcurveto
          233 47 hlineto
          -9 callgsubr
          endchar
        </CharString>
        <CharString name="Aring">
          1374 456 1732 rmoveto
          -104 106 -66 121 122 105 -5 callgsubr
          -50 -71 -72 -39 -49 -54 -55 -38 49 72 vhcurveto
          596 -1485 -98 callsubr
          -95 callsubr
        </CharString>
        <CharString name="Aringacute">
          1374 940 14 callgsubr
          115 73 36 55 56 -73 35 -115 98 callgsubr
          50 39 rmoveto
          -46 hlineto
          -42 -24 22 30 31 24 21 42 hvcurveto
          46 hlineto
          43 22 -21 -31 -30 -23 -22 -42 hvcurveto
          480 -1317 -98 callsubr
          -95 callsubr
        </CharString>
        <CharString name="Aringbelow">
          5 callsubr
          91 callsubr
          -452 -867 rmoveto
          -106 117 -67 134 209 callsubr
        </CharString>
        <CharString name="Atilde">
          1374 792 90 callsubr
          -5 hvcurveto
          -52 hlineto
          -92 -5 -23 -28 -38 hhcurveto
          -28 -23 103 callsubr
          -47 -39 23 -53 hhcurveto
          -86 -69 -63 -174 4 hvcurveto
          52 hlineto
          92 5 24 29 38 hhcurveto
          28 23 -13 -23 31 hvcurveto
          29 -21 rlineto
          -34 48 39 -23 52 hhcurveto
          394 -1321 -98 callsubr
          -95 callsubr
        </CharString>
        <CharString name="B">
          1320 1231 413 113 callsubr
        </CharString>
        <CharString name="Bdotaccent">
          1320 663 -69 callsubr
          -81 callgsubr
          568 -1175 113 callsubr
        </CharString>
        <CharString name="Bdotbelow">
          200 callsubr
          -335 -596 rmoveto
          49 callsubr
          37 callsubr
        </CharString>
        <CharString name="Becyrillic">
          1252 1181 417 rmoveto
          241 -196 160 -382 vhcurveto
          -175 571 hlineto
          208 -6 264 -9 75 -43 50 -225 rlinecurve
          43 hlineto
          -14 338 rlineto
          -994 -79 callsubr
          -107 callsubr
          544 vlineto
          361 216 164 253 hvcurveto
          -233 -6 rmoveto
          -215 -125 -127 -271 -9 vhcurveto
          -124 -4 0 704 124 -4 rlineto
          268 -9 128 -129 -207 vvcurveto
          endchar
        </CharString>
        <CharString name="Betagreek">
          1320 1231 413 113 callsubr
        </CharString>
        <CharString name="Blinebelow">
          200 callsubr
          -587 -746 -73 callsubr
        </CharString>
        <CharString name="C">
          1410 99 730 -3 callsubr
          -22 callsubr
        </CharString>
        <CharString name="Cacute">
          1410 792 -82 callsubr
          98 callsubr
          -635 -818 -3 callsubr
          -22 callsubr
        </CharString>
        <CharString name="Ccaron">
          1410 1042 -72 callsubr
          -55 callsubr
          -999 -1101 -3 callsubr
          -22 callsubr
        </CharString>
        <CharString name="Ccedilla">
          1410 99 730 rmoveto
          -457 315 -285 402 -11 vhcurveto
          -111 -148 -78 callgsubr
          -65 -49 -54 138 callsubr
          -1 callsubr
          65 91 rlineto
          191 7 167 55 71 52 13 321 rcurveline
          -48 callgsubr
          -22 callsubr
        </CharString>
        <CharString name="Ccedillaacute">
          1410 792 -82 callsubr
          98 callsubr
          -635 -818 rmoveto
          -457 315 -285 402 -11 vhcurveto
          -111 -148 -78 callgsubr
          -65 -49 -54 138 callsubr
          -1 callsubr
          65 91 rlineto
          191 7 167 55 71 52 13 321 rcurveline
          -48 callgsubr
          -22 callsubr
        </CharString>
        <CharString name="Ccircumflex">
          1410 639 -63 callsubr
          -54 callsubr
          -484 -817 -3 callsubr
          -22 callsubr
        </CharString>
        <CharString name="Cdotaccent">
          1410 831 -69 callsubr
          -62 callsubr
          -732 -858 -3 callsubr
          -22 callsubr
        </CharString>
        <CharString name="Checyrillic">
          1505 1294 -61 callsubr
          18 20 134 16 vhcurveto
          47 -513 -47 vlineto
          127 -16 18 -18 -86 vvcurveto
          -576 vlineto
          -37 -89 -104 -17 -118 hhcurveto
          -252 -109 133 260 hvcurveto
          237 vlineto
          86 17 18 127 16 vhcurveto
          47 -505 -47 vlineto
          127 -16 18 -18 -86 vvcurveto
          -235 vlineto
          -318 201 -151 325 142 127 28 43 93 vhcurveto
          -458 vlineto
          -97 -20 -26 -145 -16 vhcurveto
          -47 533 47 vlineto
          -134 16 -18 21 88 vvcurveto
          endchar
        </CharString>
        <CharString name="Chigreek">
          1352 283 286 52 callsubr
        </CharString>
        <CharString name="D">
          1518 36 callsubr
          endchar
        </CharString>
        <CharString name="Dbar">
          1518 60 710 rmoveto
          152 -538 hlineto
          -88 -18 -21 -134 -16 vhcurveto
          -47 524 vlineto
          453 393 267 479 447 -354 251 -493 hvcurveto
          -523 -79 callsubr
          -502 -152 vlineto
          1131 -43 -67 callgsubr
          rlineto
          656 319 60 -319 620 vlineto
          86 callgsubr
          endchar
        </CharString>
        <CharString name="Dcaron">
          1518 937 1831 rmoveto
          -203 -147 -199 147 -19 callsubr
          437 -1085 112 callsubr
          endchar
        </CharString>
        <CharString name="Dcircumflexbelow">
          1518 36 callsubr
          -678 -1180 -26 callsubr
          57 -8 callsubr
          -211 -320 rlineto
          endchar
        </CharString>
        <CharString name="Dcommaaccent">
          1518 36 callsubr
          -481 -1189 -52 callsubr
          15 callsubr
          160 callsubr
        </CharString>
        <CharString name="Ddotaccent">
          1518 726 66 callsubr
          704 -842 112 callsubr
          endchar
        </CharString>
        <CharString name="Ddotbelow">
          1518 36 callsubr
          -474 -925 -46 callsubr
        </CharString>
        <CharString name="Decyrillic">
          1464 1409 60 rmoveto
          -191 1199 hlineto
          97 20 25 144 16 vhcurveto
          47 -1177 -47 vlineto
          148 -19 40 -30 -5 -146 rrcurveto
          -9 -248 -13 -401 -51 -313 -133 -180 rlinecurve
          -153 hlineto
          -8 -381 rlineto
          54 hlineto
          279 66 84 42 244 hhcurveto
          504 hlineto
          253 73 -56 -265 63 hvcurveto
          54 hlineto
          -414 381 rmoveto
          -728 hlineto
          119 179 52 296 11 419 14 430 rcurveline
          532 hlineto
          endchar
        </CharString>
        <CharString name="Deltagreek">
          1279 48 hmoveto
          1182 105 hlineto
          -535 1344 -111 0 -536 -1343 rlineto
          94 42 rmoveto
          432 1086 413 -1086 rlineto
          endchar
        </CharString>
        <CharString name="Djecyrillic">
          1677 -31 callsubr
          -33 callgsubr
          506 vlineto
          39 67 93 23 104 hhcurveto
          224 140 -154 -287 2 hvcurveto
          2 -276 -114 -240 -195 -130 25 -38 rcurveline
          300 145 198 252 308 vvcurveto
          332 -213 169 -289 -150 -117 -37 -47 -77 vhcurveto
          645 75 callgsubr
        </CharString>
        <CharString name="Dlinebelow">
          1518 36 callsubr
          -726 -1075 -73 callsubr
        </CharString>
        <CharString name="Dzecyrillic">
          1152 564 -24 106 callsubr
          endchar
        </CharString>
        <CharString name="Dzhecyrillic">
          1574 1362 1272 rmoveto
          89 -51 callsubr
          -513 -47 vlineto
          124 -16 21 -18 -86 vvcurveto
          -1218 -718 1218 vlineto
          86 20 18 125 16 vhcurveto
          47 -513 43 callsubr
          -107 callsubr
          528 vlineto
          107 23 -32 -287 43 hvcurveto
          53 hlineto
          287 43 23 32 106 hhcurveto
          528 47 hlineto
          99 callsubr
        </CharString>
        <CharString name="E">
          1230 1097 1444 -91 callsubr
        </CharString>
        <CharString name="Eacute">
          1230 590 -2 callsubr
          565 -104 -91 callsubr
        </CharString>
        <CharString name="Ebreve">
          1230 628 19 callsubr
          469 -148 -91 callsubr
        </CharString>
        <CharString name="Ecaron">
          1230 839 -72 callsubr
          -55 callsubr
          202 -387 -91 callsubr
        </CharString>
        <CharString name="Ecedilla">
          1230 602 -462 rmoveto
          -1 callsubr
          77 108 rlineto
          6 471 vlineto
          -70 callsubr
          -37 callsubr
          -15 callsubr
          -14 347 rlineto
          -17 callsubr
          555 vlineto
          -128 -46 callgsubr
          138 callsubr
          endchar
        </CharString>
        <CharString name="Ecedillabreve">
          1230 628 19 callsubr
          -26 -2054 rmoveto
          -1 callsubr
          77 108 rlineto
          6 471 vlineto
          -70 callsubr
          -37 callsubr
          -15 callsubr
          -14 347 rlineto
          -17 callsubr
          555 vlineto
          -128 -46 callgsubr
          138 callsubr
          endchar
        </CharString>
        <CharString name="Ecircumflex">
          1230 436 -63 callsubr
          -54 callsubr
          717 -103 -91 callsubr
        </CharString>
        <CharString name="Ecircumflexacute">
          1230 885 -8 callgsubr
          725 -98 -91 callsubr
        </CharString>
        <CharString name="Ecircumflexbelow">
          1230 1097 1444 rmoveto
          -17 callsubr
          1084 vlineto
          -70 callsubr
          -37 callsubr
          -15 callsubr
          -683 -1550 rmoveto
          204 31 callgsubr
        </CharString>
        <CharString name="Ecircumflexdotbelow">
          1230 436 -63 callsubr
          -54 callsubr
          717 -103 rmoveto
          -17 callsubr
          1084 vlineto
          -70 callsubr
          -37 callsubr
          -15 callsubr
          -480 -1295 -46 callsubr
        </CharString>
        <CharString name="Ecircumflexgrave">
          1230 372 126 callsubr
          26 callsubr
          725 -98 -91 callsubr
        </CharString>
        <CharString name="Ecircumflexhookabove">
          1230 843 133 callsubr
          39 11 42 hhcurveto
          56 35 -21 -35 -34 -31 -23 -63 166 callsubr
          26 callsubr
          725 -98 -91 callsubr
        </CharString>
        <CharString name="Ecircumflextilde">
          1230 741 1763 rmoveto
          83 62 49 102 hvcurveto
          -51 hlineto
          -45 -7 callsubr
          -101 callgsubr
          51 hlineto
          46 -42 callgsubr
          35 callgsubr
          725 -98 -91 callsubr
        </CharString>
        <CharString name="Ecyrillic">
          1432 99 730 -3 callsubr
          -309 -189 295 370 -14 hvcurveto
          718 -9 0 78 -719 -10 rlineto
          381 6 188 251 314 hhcurveto
          -27 callgsubr
        </CharString>
        <CharString name="Edblgrave">
          1230 425 77 callsubr
          59 hlineto
          178 -73 callgsubr
          272 -102 -91 callsubr
        </CharString>
        <CharString name="Edieresis">
          1230 470 -32 callsubr
          -68 callsubr
          -29 callsubr
          -68 callsubr
          310 -143 -91 callsubr
        </CharString>
        <CharString name="Edotaccent">
          1230 628 -69 callsubr
          -62 callsubr
          469 -144 -91 callsubr
        </CharString>
        <CharString name="Edotbelow">
          1230 1097 1444 rmoveto
          -17 callsubr
          1084 vlineto
          -70 callsubr
          -37 callsubr
          -15 callsubr
          -480 -1295 -46 callsubr
        </CharString>
        <CharString name="Efcyrillic">
          1823 76 718 rmoveto
          -310 304 -185 429 -12 vhcurveto
          -49 vlineto
          -97 -21 -26 -144 -16 vhcurveto
          -47 -52 callgsubr
          49 vlineto
          444 11 288 188 311 vvcurveto
          304 -272 196 -460 11 vhcurveto
          50 vlineto
          97 20 26 144 16 vhcurveto
          47 -535 -47 vlineto
          144 -16 21 -26 -97 vvcurveto
          -50 vlineto
          -476 -11 -257 -198 -305 vvcurveto
          233 9 rmoveto
          226 133 202 367 15 vhcurveto
          -896 vlineto
          -342 16 -158 205 232 vvcurveto
          1206 -6 rmoveto
          -229 -147 -203 -353 -15 vhcurveto
          896 vlineto
          354 -16 146 -203 -230 vvcurveto
          endchar
        </CharString>
        <CharString name="Egrave">
          1230 685 2 callsubr
          713 -368 -91 callsubr
        </CharString>
        <CharString name="Ehookabove">
          1230 649 157 callsubr
          448 -420 -91 callsubr
        </CharString>
        <CharString name="Einvertedbreve">
          1230 628 115 callsubr
          469 -434 -91 callsubr
        </CharString>
        <CharString name="Elcyrillic">
          1458 3 callgsubr
          525 -1212 hlineto
          -88 -21 -21 -131 -16 vhcurveto
          -47 520 47 vlineto
          28 callgsubr
          -1158 72 callgsubr
          -440 -34 -275 -98 -122 rlinecurve
          68 -58 59 -70 -73 -58 -58 -72 vhcurveto
          endchar
        </CharString>
        <CharString name="Emacron">
          1230 384 -30 callsubr
          713 -275 -91 callsubr
        </CharString>
        <CharString name="Emacronacute">
          1230 885 -13 callgsubr
          726 -232 -91 callsubr
        </CharString>
        <CharString name="Emacrongrave">
          1230 372 74 callsubr
          -41 callgsubr
          726 -232 -91 callsubr
        </CharString>
        <CharString name="Emcyrillic">
          1803 447 1444 55 callsubr
        </CharString>
        <CharString name="Encyrillic">
          7 callsubr
          -50 callsubr
          -38 callsubr
        </CharString>
        <CharString name="Eogonek">
          1230 989 -482 rmoveto
          78 66 36 50 28 hvcurveto
          47 vlineto
          -19 -18 -29 -14 -35 hhcurveto
          -74 -56 82 108 76 21 71 33 45 hvcurveto
          141 hlineto
          -70 callsubr
          -37 callsubr
          -15 callsubr
          -14 347 rlineto
          -17 callsubr
          898 vlineto
          -97 -85 -63 -105 -106 vvcurveto
          -113 83 -73 108 vhcurveto
          endchar
        </CharString>
        <CharString name="Epsilongreek">
          1230 1097 1444 -91 callsubr
        </CharString>
        <CharString name="Epsilontonosgreek">
          1499 1365 1444 rmoveto
          -1036 -79 callsubr
          -107 callsubr
          1083 vlineto
          18 388 rlineto
          -43 hlineto
          -37 callsubr
          265 -10 86 -53 52 -221 rlinecurve
          43 hlineto
          -1326 -9 -66 callgsubr
          endchar
        </CharString>
        <CharString name="Ercyrillic">
          1265 1177 1026 57 callsubr
        </CharString>
        <CharString name="Ereversedcyrillic">
          1440 126 98 rmoveto
          -63 83 192 -59 188 hhcurveto
          423 329 286 479 446 -312 281 -434 -217 -162 -52 -62 -80 hvcurveto
          -14 -282 rlineto
          44 hlineto
          222 54 143 107 222 hhcurveto
          312 194 -246 -386 10 hvcurveto
          -712 9 0 -78 713 8 rlineto
          -373 -10 -196 -292 -316 hhcurveto
          -201 -166 84 254 -59 hvcurveto
          -43 hlineto
          endchar
        </CharString>
        <CharString name="Escyrillic">
          1410 99 730 -3 callsubr
          -22 callsubr
        </CharString>
        <CharString name="Etagreek">
          7 callsubr
          -50 callsubr
          -38 callsubr
        </CharString>
        <CharString name="Etatonosgreek">
          1853 697 167 rmoveto
          542 728 -542 vlineto
          -86 -18 -18 -127 51 callsubr
          28 callgsubr
          -513 -47 vlineto
          127 -16 18 -18 -86 vvcurveto
          -508 -728 508 vlineto
          85 20 18 125 16 vhcurveto
          48 -513 43 callsubr
          -107 callsubr
          -41 callsubr
          -643 921 -66 callgsubr
          endchar
        </CharString>
        <CharString name="Etilde">
          1230 737 90 callsubr
          83 callsubr
          153 callsubr
          360 -124 -91 callsubr
        </CharString>
        <CharString name="Etildebelow">
          1230 1097 1444 rmoveto
          -17 callsubr
          1084 vlineto
          -70 callsubr
          -37 callsubr
          -15 callsubr
          -374 -1500 52 callgsubr
          -23 11 24 -30 hvcurveto
          -28 20 rlineto
          34 -46 -38 22 -51 hhcurveto
          -83 -67 -60 -167 4 hvcurveto
          49 hlineto
          89 5 22 93 callsubr
          85 callsubr
        </CharString>
        <CharString name="F">
          1122 1062 1444 rmoveto
          -1002 -79 callsubr
          -107 callsubr
          -16 callsubr
          203 callsubr
        </CharString>
        <CharString name="Fdotaccent">
          1122 610 -69 callsubr
          -62 callsubr
          452 -144 rmoveto
          -1002 -79 callsubr
          -107 callsubr
          -16 callsubr
          203 callsubr
        </CharString>
        <CharString name="G">
          1528 99 730 -4 callsubr
        </CharString>
        <CharString name="Gacute">
          1528 788 -82 callsubr
          -78 callsubr
          -631 -818 -4 callsubr
        </CharString>
        <CharString name="Gammagreek">
          1113 1049 1444 rmoveto
          -989 -79 callsubr
          -107 callsubr
          -16 callsubr
          1204 vlineto
          200 -7 264 -8 78 -51 49 -218 rlinecurve
          43 hlineto
          endchar
        </CharString>
        <CharString name="Gbreve">
          1528 827 -29 callgsubr
          -3 -14 -1 -16 -15 vvcurveto
          -121 90 -120 155 vhcurveto
          -728 -862 -4 callsubr
        </CharString>
        <CharString name="Gcaron">
          1528 1038 -72 callsubr
          -19 callsubr
          -995 -1101 -4 callsubr
        </CharString>
        <CharString name="Gcircumflex">
          1528 634 1547 rmoveto
          202 147 200 -147 60 0 -205 84 callsubr
          -479 -817 -4 callsubr
        </CharString>
        <CharString name="Gcommaaccent">
          1528 99 730 rmoveto
          -464 328 -290 417 197 198 59 86 112 vhcurveto
          381 vlineto
          93 18 18 134 13 vhcurveto
          46 -515 -46 vlineto
          146 -14 17 -17 -93 vvcurveto
          -378 vlineto
          -50 -63 -104 -30 -126 hhcurveto
          -325 -193 318 390 390 190 258 321 230 143 -120 -238 55 hvcurveto
          43 hlineto
          -13 320 rlineto
          57 -79 -156 49 -235 hhcurveto
          -411 -329 -267 -471 hvcurveto
          736 -1192 117 callsubr
          -99 callgsubr
        </CharString>
        <CharString name="Gdotaccent">
          1528 827 66 callsubr
          -728 -858 -4 callsubr
        </CharString>
        <CharString name="Geacutecyrillic">
          1114 572 -2 callsubr
          535 -104 rmoveto
          -989 -79 callsubr
          -107 callsubr
          -16 callsubr
          15 callgsubr
        </CharString>
        <CharString name="Gecyrillic">
          1114 1049 1444 rmoveto
          -989 -79 callsubr
          -107 callsubr
          -16 callsubr
          15 callgsubr
        </CharString>
        <CharString name="Germandbls">
          1407 428 hmoveto
          1390 vlineto
          220 -8 rlineto
          289 -11 119 -129 -164 vvcurveto
          -144 -84 -100 -169 -29 vhcurveto
          -123 vlineto
          212 -57 120 -133 -183 vvcurveto
          -171 -97 -97 -131 -140 -109 114 208 -38 vhcurveto
          -43 -311 hlineto
          -37 54 124 -39 151 hhcurveto
          207 206 138 251 223 -124 168 -211 67 hvcurveto
          153 18 125 103 162 vvcurveto
          206 -175 132 -383 vhcurveto
          -644 -79 callsubr
          -1100 vlineto
          -89 -18 -20 -134 -16 vhcurveto
          -47 vlineto
          endchar
        </CharString>
        <CharString name="Geupturncyrillic">
          1084 1022 1385 rmoveto
          11 378 rlineto
          -53 hlineto
          -280 -78 -53 -39 -259 hhcurveto
          -530 -79 callsubr
          -107 callsubr
          -16 callsubr
          1199 vlineto
          endchar
        </CharString>
        <CharString name="Gmacron">
          1528 583 -55 callgsubr
          -484 -989 -4 callsubr
        </CharString>
        <CharString name="H">
          7 callsubr
          -50 callsubr
          -38 callsubr
        </CharString>
        <CharString name="Hacyrillic">
          1352 283 286 52 callsubr
        </CharString>
        <CharString name="Hardsigncyrillic">
          1509 1422 174 callsubr
          20 25 145 16 vhcurveto
          47 -775 vlineto
          -13 -338 rlineto
          43 hlineto
          42 226 66 45 240 9 16 1 rcurveline
          -1201 vlineto
          -97 -20 -26 -144 -16 vhcurveto
          -47 574 vlineto
          365 194 194 246 hvcurveto
          -232 -10 rmoveto
          -220 -119 -141 -259 -9 vhcurveto
          -143 -4 0 746 133 -1 rlineto
          254 -4 134 -138 -229 vvcurveto
          endchar
        </CharString>
        <CharString name="Hbar">
          7 callsubr
          884 152 61 -152 155 13 callgsubr
          -160 -728 160 vlineto
          85 20 18 125 16 vhcurveto
          48 -513 43 callsubr
          -155 -152 -61 152 -884 44 callsubr
          -41 callsubr
          602 vmoveto
          287 728 -287 vlineto
          endchar
        </CharString>
        <CharString name="Hbrevebelow">
          7 callsubr
          -50 callsubr
          -41 callsubr
          365 -606 rmoveto
          -44 callgsubr
          -2 15 hvcurveto
          -50 159 callsubr
        </CharString>
        <CharString name="Hcaron">
          1584 1004 -72 callsubr
          -55 callsubr
          -632 -1664 64 callsubr
          -50 callsubr
          -38 callsubr
        </CharString>
        <CharString name="Hcedilla">
          7 callsubr
          -50 callsubr
          236 vlineto
          -124 -171 rlineto
          -45 vlineto
          -79 callgsubr
          15 23 -30 hvcurveto
          -47 vlineto
          -44 34 71 -31 87 hhcurveto
          -6 callgsubr
          215 47 hlineto
          -125 16 -20 18 86 vvcurveto
          endchar
        </CharString>
        <CharString name="Hcircumflex">
          1584 601 -63 callsubr
          -54 callsubr
          -117 -1380 64 callsubr
          -50 callsubr
          -38 callsubr
        </CharString>
        <CharString name="Hdieresis">
          1584 635 -32 callsubr
          -68 callsubr
          -29 callsubr
          -68 callsubr
          -524 -1420 64 callsubr
          -50 callsubr
          -38 callsubr
        </CharString>
        <CharString name="Hdotaccent">
          1584 793 -69 callsubr
          -62 callsubr
          -365 -1421 64 callsubr
          -50 callsubr
          -38 callsubr
        </CharString>
        <CharString name="Hdotbelow">
          7 callsubr
          -50 callsubr
          -41 callsubr
          365 -365 -46 callsubr
        </CharString>
        <CharString name="I">
          640 428 -61 callsubr
          -51 callsubr
          -100 callsubr
          -107 callsubr
          -80 callsubr
        </CharString>
        <CharString name="IAcyrillic">
          1336 156 1039 rmoveto
          -206 146 -112 189 -39 vhcurveto
          -226 -362 -135 -216 -35 -40 -68 -21 rlinecurve
          -43 264 vlineto
          400 652 rlineto
          205 -485 hlineto
          -84 -17 -18 -128 -18 vhcurveto
          -47 513 47 vlineto
          -131 19 -21 19 87 vvcurveto
          1099 vlineto
          90 21 20 131 15 vhcurveto
          48 -558 vlineto
          -346 -204 -148 -257 hvcurveto
          224 10 rmoveto
          212 126 117 256 7 vhcurveto
          134 5 0 -685 -139 3 rlineto
          -227 3 -150 126 212 vvcurveto
          endchar
        </CharString>
        <CharString name="IJ">
          1280 428 -61 callsubr
          -51 callsubr
          -100 callsubr
          -107 callsubr
          34 callsubr
          639 75 0 callsubr
          -519 -47 vlineto
          133 -16 18 -20 -89 vvcurveto
          -995 vlineto
          -332 161 callsubr
        </CharString>
        <CharString name="IJacute">
          1280 281 -82 callsubr
          -78 callsubr
          697 -1 rmoveto
          298 266 rlineto
          6 -78 callsubr
          -434 -1376 -77 callsubr
          -100 callsubr
          -107 callsubr
          34 callsubr
          639 75 0 callsubr
          -519 -47 vlineto
          133 -16 18 -20 -89 vvcurveto
          -995 vlineto
          -332 161 callsubr
        </CharString>
        <CharString name="IUcyrillic">
          2229 428 167 rmoveto
          542 269 vlineto
          -460 7 349 -273 360 hhcurveto
          435 282 329 418 1 hvcurveto
          468 1 -356 277 -362 hhcurveto
          -419 -276 -304 -395 -21 hvcurveto
          -270 508 hlineto
          85 20 18 125 16 vhcurveto
          48 -513 43 callsubr
          -107 callsubr
          -41 callsubr
          998 -123 rmoveto
          -303 -187 303 392 374 134 287 332 302 190 -302 -392 -1 hvcurveto
          -374 -1 -135 -288 -331 hhcurveto
          endchar
        </CharString>
        <CharString name="Iacute">
          640 281 -82 callsubr
          -78 callsubr
          205 -1376 -77 callsubr
          -100 callsubr
          -107 callsubr
          -80 callsubr
        </CharString>
        <CharString name="Ibreve">
          640 320 -29 callgsubr
          92 callgsubr
          108 -1420 -77 callsubr
          -100 callsubr
          -107 callsubr
          -80 callsubr
        </CharString>
        <CharString name="Icaron">
          640 531 -72 callsubr
          -19 callsubr
          -159 -1659 -77 callsubr
          -100 callsubr
          -107 callsubr
          -80 callsubr
        </CharString>
        <CharString name="Icircumflex">
          640 127 1547 rmoveto
          203 147 199 -147 60 0 -205 84 callsubr
          357 -1375 -77 callsubr
          -100 callsubr
          -107 callsubr
          -80 callsubr
        </CharString>
        <CharString name="Icyrillic">
          640 428 -61 callsubr
          -51 callsubr
          -100 callsubr
          -107 callsubr
          -80 callsubr
        </CharString>
        <CharString name="Idblgrave">
          640 116 77 callsubr
          60 hlineto
          177 -73 callgsubr
          -88 -1374 -77 callsubr
          -100 callsubr
          -107 callsubr
          -80 callsubr
        </CharString>
        <CharString name="Idieresis">
          640 162 1587 rmoveto
          -45 callsubr
          317 hmoveto
          -45 callsubr
          -51 -1415 -77 callsubr
          -100 callsubr
          -107 callsubr
          -80 callsubr
        </CharString>
        <CharString name="Idieresisacute">
          640 576 -74 callgsubr
          114 -198 rmoveto
          46 34 31 40 40 -34 31 -10 callsubr
          41 callsubr
          34 31 40 40 -34 31 88 callsubr
          -35 -1389 -77 callsubr
          -100 callsubr
          -107 callsubr
          -80 callsubr
        </CharString>
        <CharString name="Idotaccent">
          640 320 0 callgsubr
          108 -1416 -77 callsubr
          -100 callsubr
          -107 callsubr
          -80 callsubr
        </CharString>
        <CharString name="Idotbelow">
          640 428 -61 callsubr
          -51 callsubr
          -100 callsubr
          -107 callsubr
          34 callsubr
          -109 -370 -66 callsubr
          40 callsubr
        </CharString>
        <CharString name="Iecyrillic">
          1230 1097 1444 -91 callsubr
        </CharString>
        <CharString name="Igrave">
          640 376 1547 rmoveto
          58 hlineto
          -139 272 rlineto
          -219 -7 hlineto
          352 -1640 -77 callsubr
          -100 callsubr
          -107 callsubr
          -80 callsubr
        </CharString>
        <CharString name="Ihookabove">
          640 341 -87 callgsubr
          8 callgsubr
          -65 50 -96 vhcurveto
          87 -1692 -77 callsubr
          -100 callsubr
          -107 callsubr
          -80 callsubr
        </CharString>
        <CharString name="Iicyrillic">
          1605 428 167 rmoveto
          55 vlineto
          749 909 rlineto
          -964 vlineto
          -86 -17 -18 -128 51 callsubr
          -131 16 -21 21 88 vvcurveto
          64 callgsubr
          128 -16 17 -18 -86 vvcurveto
          -54 vlineto
          -749 -909 rlineto
          963 vlineto
          85 20 18 125 16 vhcurveto
          48 -513 43 callsubr
          -107 callsubr
          -38 callsubr
        </CharString>
        <CharString name="Iinvertedbreve">
          640 319 1878 rmoveto
          -156 -87 -120 -121 -15 1 -16 2 -14 hvcurveto
          2 callgsubr
          109 -1706 -77 callsubr
          -100 callsubr
          -107 callsubr
          -80 callsubr
        </CharString>
        <CharString name="Iishortcyrillic">
          1605 802 1595 rmoveto
          178 105 165 callsubr
          -37 -73 170 callsubr
          -38 41 -54 -56 -100 callgsubr
          -374 -1428 rmoveto
          55 vlineto
          749 909 rlineto
          -964 vlineto
          -86 -17 -18 -128 51 callsubr
          -131 16 -21 21 88 vvcurveto
          64 callgsubr
          128 -16 17 -18 -86 vvcurveto
          -54 vlineto
          -749 -909 rlineto
          963 vlineto
          85 20 18 125 16 vhcurveto
          48 -513 43 callsubr
          -107 callsubr
          -38 callsubr
        </CharString>
        <CharString name="Imacron">
          640 76 -30 callsubr
          352 -1547 -77 callsubr
          -100 callsubr
          -107 callsubr
          -80 callsubr
        </CharString>
        <CharString name="Iocyrillic">
          1230 470 -32 callsubr
          -68 callsubr
          -29 callsubr
          -68 callsubr
          310 -143 -91 callsubr
        </CharString>
        <CharString name="Iogonek">
          640 428 -61 callsubr
          -51 callsubr
          -100 callsubr
          -107 callsubr
          252 vlineto
          -96 -85 -64 -105 -106 vvcurveto
          -113 84 -73 107 78 67 36 50 28 vhcurveto
          47 vlineto
          -19 -17 -30 -14 -35 hhcurveto
          -74 -55 82 108 76 20 71 33 45 hvcurveto
          222 47 hlineto
          99 callsubr
        </CharString>
        <CharString name="Iotadieresisgreek">
          640 162 1587 rmoveto
          -45 callsubr
          317 hmoveto
          -45 callsubr
          -51 -1415 -77 callsubr
          -100 callsubr
          -107 callsubr
          -80 callsubr
        </CharString>
        <CharString name="Iotagreek">
          640 428 -61 callsubr
          -51 callsubr
          -100 callsubr
          -107 callsubr
          -80 callsubr
        </CharString>
        <CharString name="Iotatonosgreek">
          908 697 -61 callsubr
          18 20 134 16 vhcurveto
          47 -100 callsubr
          -107 callsubr
          520 47 vlineto
          -134 16 -18 21 88 vvcurveto
          -643 916 -66 callgsubr
          endchar
        </CharString>
        <CharString name="Itilde">
          640 428 1568 rmoveto
          87 69 63 174 -4 hvcurveto
          -52 hlineto
          -92 -5 -24 -28 -38 hhcurveto
          -28 -22 103 callsubr
          6 callgsubr
          47 40 -23 51 hhcurveto
          -1396 vmoveto
          1100 vlineto
          89 -51 callsubr
          -100 callsubr
          -107 callsubr
          -80 callsubr
        </CharString>
        <CharString name="Itildebelow">
          640 428 -61 callsubr
          -51 callsubr
          -100 callsubr
          -107 callsubr
          34 callsubr
          -4 -575 52 callgsubr
          -21 callgsubr
          22 -12 -22 31 hvcurveto
          85 callsubr
        </CharString>
        <CharString name="J">
          640 428 247 0 callsubr
          -100 callsubr
          119 callsubr
        </CharString>
        <CharString name="Jacute">
          640 281 -82 callsubr
          -78 callsubr
          205 -1301 0 callsubr
          -100 callsubr
          119 callsubr
        </CharString>
        <CharString name="Jcircumflex">
          640 127 -63 callsubr
          -204 84 callsubr
          357 -1300 0 callsubr
          -100 callsubr
          119 callsubr
        </CharString>
        <CharString name="Jecyrillic">
          640 428 247 0 callsubr
          -100 callsubr
          119 callsubr
        </CharString>
        <CharString name="K">
          1341 428 167 17 callsubr
        </CharString>
        <CharString name="Kaacutecyrillic">
          1341 665 -82 callsubr
          -78 callsubr
          -179 -1381 17 callsubr
        </CharString>
        <CharString name="Kacute">
          1341 665 -82 callsubr
          -78 callsubr
          -179 -1381 17 callsubr
        </CharString>
        <CharString name="Kacyrillic">
          1341 428 167 17 callsubr
        </CharString>
        <CharString name="Kappagreek">
          1341 428 167 17 callsubr
        </CharString>
        <CharString name="Kcaron">
          1341 915 -72 callsubr
          -19 callsubr
          -543 -1664 17 callsubr
        </CharString>
        <CharString name="Kcommaaccent">
          145 callsubr
          301 -629 -52 callsubr
          15 callsubr
          64 -4 callgsubr
        </CharString>
        <CharString name="Kdotbelow">
          145 callsubr
          308 -365 -46 callsubr
        </CharString>
        <CharString name="Klinebelow">
          145 callsubr
          56 -515 -73 callsubr
        </CharString>
        <CharString name="L">
          28 callsubr
          endchar
        </CharString>
        <CharString name="Lacute">
          1133 284 1547 rmoveto
          297 266 rlineto
          6 98 callsubr
          845 -1548 rmoveto
          3 callsubr
          24 callsubr
          endchar
        </CharString>
        <CharString name="Lambdagreek">
          1350 1159 248 rmoveto
          -427 1200 -112 0 -425 -1203 -56 -157 -40 -28 -104 -13 rlinecurve
          -47 406 47 vlineto
          -153 18 -13 42 48 148 rrcurveto
          320 963 335 -989 46 -136 -43 -30 -123 -16 rlinecurve
          -47 538 47 vlineto
          -98 13 -41 28 -58 160 rrcurveto
          endchar
        </CharString>
        <CharString name="Lcaron">
          1133 829 1107 rmoveto
          171 407 -171 0 -44 -407 rlineto
          285 -1107 rmoveto
          3 callsubr
          24 callsubr
          endchar
        </CharString>
        <CharString name="Lcircumflexbelow">
          28 callsubr
          324 -453 -26 callsubr
          57 -8 callsubr
          -211 -320 rlineto
          endchar
        </CharString>
        <CharString name="Lcommaaccent">
          28 callsubr
          521 -462 -52 callsubr
          -113 -77 -55 -33 -35 -26 hvcurveto
          -44 vlineto
          9 17 33 8 -83 callgsubr
        </CharString>
        <CharString name="Ldot">
          28 callsubr
          775 708 38 callgsubr
          endchar
        </CharString>
        <CharString name="Ldotbelow">
          28 callsubr
          528 -198 -46 callsubr
        </CharString>
        <CharString name="Ldotbelowmacron">
          1133 78 -30 callsubr
          992 -1719 rmoveto
          3 callsubr
          24 callsubr
          528 -198 -46 callsubr
        </CharString>
        <CharString name="Ljecyrillic">
          2019 3 callgsubr
          457 -1212 hlineto
          -88 -21 -21 -131 -16 vhcurveto
          -47 562 vlineto
          364 195 194 246 270 -211 150 -358 hvcurveto
          -184 399 hlineto
          97 19 25 145 16 vhcurveto
          47 -1102 72 callgsubr
          -439 -34 -276 -98 -122 rlinecurve
          68 -58 59 -70 -73 -58 -58 -72 vhcurveto
          1688 319 rmoveto
          -220 -118 -141 -260 -9 vhcurveto
          -142 -4 0 746 133 -1 rlineto
          254 -4 133 -138 -229 vvcurveto
          endchar
        </CharString>
        <CharString name="Llinebelow">
          28 callsubr
          276 -348 -73 callsubr
        </CharString>
        <CharString name="Lslash">
          1133 60 623 rmoveto
          152 46 rlineto
          -497 44 callsubr
          1010 vlineto
          3 callsubr
          rrcurveto
          -201 -8 0 681 361 111 0 65 -361 -110 rlineto
          458 vlineto
          97 136 callsubr
          -537 vlineto
          -152 -47 rlineto
          endchar
        </CharString>
        <CharString name="M">
          1803 447 1444 55 callsubr
        </CharString>
        <CharString name="Macute">
          1803 861 -82 callsubr
          -78 callsubr
          -356 -104 55 callsubr
        </CharString>
        <CharString name="Mdotaccent">
          1803 900 0 callgsubr
          -453 -144 55 callsubr
        </CharString>
        <CharString name="Mdotbelow">
          1803 447 1444 rmoveto
          -367 -47 hlineto
          119 -18 27 -31 -4 -107 rrcurveto
          -35 -1003 -6 -142 -19 -32 -135 -17 rlinecurve
          -47 399 47 vlineto
          -137 17 -16 32 2 144 rrcurveto
          11 1035 505 -1275 88 0 73 206 410 1066 32 -1102 2 -90 -20 -19 -127 -14 rlinecurve
          -47 511 47 vlineto
          -131 15 -17 19 -3 91 rrcurveto
          -34 1100 -2 88 22 21 127 16 rlinecurve
          47 -378 vlineto
          -431 -1204 rlineto
          -78 -438 -66 callsubr
          40 callsubr
        </CharString>
        <CharString name="Mugreek">
          1803 447 1444 55 callsubr
        </CharString>
        <CharString name="N">
          1486 -28 callsubr
          11 callsubr
          endchar
        </CharString>
        <CharString name="Nacute">
          1486 725 -82 callsubr
          -78 callsubr
          -277 -104 20 callsubr
          11 callsubr
          endchar
        </CharString>
        <CharString name="Ncaron">
          1486 975 -72 callsubr
          -19 callsubr
          -641 -387 20 callsubr
          11 callsubr
          endchar
        </CharString>
        <CharString name="Ncircumflexbelow">
          1486 -28 callsubr
          11 callsubr
          -695 -711 -26 callsubr
          56 -8 callsubr
          -210 -320 rlineto
          endchar
        </CharString>
        <CharString name="Ncommaaccent">
          1486 -28 callsubr
          11 callsubr
          -498 -720 rmoveto
          131 89 68 102 103 -81 65 -113 -76 -55 -33 -35 -27 hvcurveto
          -44 vlineto
          9 18 33 8 33 hhcurveto
          63 49 -31 -50 -53 -49 -30 -65 -99 callgsubr
        </CharString>
        <CharString name="Ndotaccent">
          1486 764 66 callsubr
          -374 -144 20 callsubr
          11 callsubr
          endchar
        </CharString>
        <CharString name="Ndotbelow">
          1486 -28 callsubr
          11 callsubr
          -491 -456 -66 callsubr
          10 callsubr
        </CharString>
        <CharString name="Ngrave">
          1486 820 61 callgsubr
          -129 -368 20 callsubr
          11 callsubr
          endchar
        </CharString>
        <CharString name="Njecyrillic">
          2090 428 167 rmoveto
          586 605 -586 vlineto
          -86 -20 -18 -124 -16 vhcurveto
          -47 554 vlineto
          365 194 183 233 255 -209 142 -359 hvcurveto
          -185 446 hlineto
          97 20 25 145 16 vhcurveto
          47 -525 -48 vlineto
          124 -16 20 -18 -85 vvcurveto
          -464 -605 464 vlineto
          85 20 18 125 16 vhcurveto
          48 -513 43 callsubr
          -107 callsubr
          -41 callsubr
          1342 239 rmoveto
          -206 -118 -132 -260 -8 vhcurveto
          -143 -4 0 699 134 -2 rlineto
          254 -3 133 -130 -214 vvcurveto
          endchar
        </CharString>
        <CharString name="Nlinebelow">
          1486 -28 callsubr
          11 callsubr
          -743 -606 -73 callsubr
        </CharString>
        <CharString name="Ntilde">
          1486 872 1568 rmoveto
          87 69 63 174 83 callsubr
          -22 103 callsubr
          -48 -39 90 callgsubr
          21 callgsubr
          -482 -124 20 callsubr
          11 callsubr
          endchar
        </CharString>
        <CharString name="Nugreek">
          1486 -28 callsubr
          11 callsubr
          endchar
        </CharString>
        <CharString name="O">
          13 callsubr
          69 callsubr
          -103 callsubr
          -106 callsubr
          -104 callsubr
          -96 callsubr
        </CharString>
        <CharString name="OE">
          2041 99 715 rmoveto
          -418 318 -321 414 vhcurveto
          154 94 24 146 hhcurveto
          729 hlineto
          17 388 rlineto
          -42 hlineto
          -53 -268 -76 -44 -297 -12 rrcurveto
          -262 -10 0 659 287 -4 107 -3 25 -42 28 -156 rlinecurve
          40 464 -40 hlineto
          -32 -159 -24 -39 -104 -3 rrcurveto
          -287 -4 0 623 236 -9 265 -10 85 -53 53 -221 rlinecurve
          42 hlineto
          -14 347 rlineto
          -683 hlineto
          -176 -57 24 -155 hhcurveto
          -445 -293 -330 -423 hvcurveto
          240 13 rmoveto
          382 171 293 338 68 62 -10 -24 47 vhcurveto
          -1299 vlineto
          -20 -50 -64 -9 -64 hhcurveto
          -318 -190 295 392 hvcurveto
          endchar
        </CharString>
        <CharString name="Oacute">
          1640 775 -2 callsubr
          -618 -826 -101 callsubr
          -103 callsubr
          -106 callsubr
          -104 callsubr
          -96 callsubr
        </CharString>
        <CharString name="Obreve">
          1640 813 19 callsubr
          -714 -870 -101 callsubr
          -103 callsubr
          -106 callsubr
          -104 callsubr
          -96 callsubr
        </CharString>
        <CharString name="Ocaron">
          1640 1024 -72 callsubr
          -55 callsubr
          -981 -1109 -101 callsubr
          -103 callsubr
          -106 callsubr
          -104 callsubr
          -96 callsubr
        </CharString>
        <CharString name="Ocircumflex">
          1640 621 -63 callsubr
          -54 callsubr
          -466 -825 -101 callsubr
          -103 callsubr
          -106 callsubr
          -104 callsubr
          -96 callsubr
        </CharString>
        <CharString name="Ocircumflexacute">
          1640 1070 -8 callgsubr
          -458 -820 -101 callsubr
          -103 callsubr
          -106 callsubr
          -104 callsubr
          -96 callsubr
        </CharString>
        <CharString name="Ocircumflexdotbelow">
          1640 621 -63 callsubr
          -54 callsubr
          -466 -825 -101 callsubr
          -103 callsubr
          -106 callsubr
          -104 callsubr
          -189 308 387 vhcurveto
          488 -937 -66 callsubr
          40 callsubr
        </CharString>
        <CharString name="Ocircumflexgrave">
          1640 557 126 callsubr
          26 callsubr
          -458 -820 -101 callsubr
          -103 callsubr
          -106 callsubr
          -104 callsubr
          -96 callsubr
        </CharString>
        <CharString name="Ocircumflexhookabove">
          1640 1028 133 callsubr
          39 11 42 hhcurveto
          56 35 -21 -35 -34 -31 -23 -63 166 callsubr
          26 callsubr
          -458 -820 -101 callsubr
          -103 callsubr
          -106 callsubr
          -104 callsubr
          -96 callsubr
        </CharString>
        <CharString name="Ocircumflextilde">
          1640 926 1763 rmoveto
          83 62 49 102 hvcurveto
          -51 hlineto
          -45 -7 callsubr
          -101 callgsubr
          51 hlineto
          46 -42 callgsubr
          35 callgsubr
          -458 -820 -101 callsubr
          -103 callsubr
          -106 callsubr
          -104 callsubr
          -96 callsubr
        </CharString>
        <CharString name="Ocyrillic">
          13 callsubr
          69 callsubr
          -103 callsubr
          -106 callsubr
          -104 callsubr
          -96 callsubr
        </CharString>
        <CharString name="Odblgrave">
          1640 610 77 callsubr
          59 hlineto
          178 -73 callgsubr
          -911 -824 -101 callsubr
          -103 callsubr
          -106 callsubr
          -104 callsubr
          -96 callsubr
        </CharString>
        <CharString name="Odieresis">
          1640 655 -32 callsubr
          -68 callsubr
          -29 callsubr
          -68 callsubr
          -873 -865 -101 callsubr
          -103 callsubr
          -106 callsubr
          -104 callsubr
          -96 callsubr
        </CharString>
        <CharString name="Odieresismacron">
          1640 556 35 callsubr
          115 -336 rmoveto
          45 -71 callsubr
          48 callsubr
          -40 34 -31 50 callsubr
          92 callsubr
          42 callsubr
          -857 -839 -101 callsubr
          -103 callsubr
          -106 callsubr
          -104 callsubr
          -96 callsubr
        </CharString>
        <CharString name="Odotaccent">
          1640 813 -69 callsubr
          -62 callsubr
          -714 -866 -101 callsubr
          -103 callsubr
          -106 callsubr
          -104 callsubr
          -96 callsubr
        </CharString>
        <CharString name="Odotaccentmacron">
          1640 556 60 callgsubr
          50 38 33 43 43 -38 34 -50 -49 -38 -34 -43 -43 38 -33 49 hvcurveto
          -714 -834 -101 callsubr
          -103 callsubr
          -106 callsubr
          -104 callsubr
          -96 callsubr
        </CharString>
        <CharString name="Odotbelow">
          13 callsubr
          69 callsubr
          -103 callsubr
          -106 callsubr
          -104 callsubr
          -189 308 387 vhcurveto
          488 -937 -66 callsubr
          40 callsubr
        </CharString>
        <CharString name="Ograve">
          1640 870 2 callsubr
          -470 -1090 -101 callsubr
          -103 callsubr
          -106 callsubr
          -104 callsubr
          -96 callsubr
        </CharString>
        <CharString name="Ohookabove">
          1640 834 157 callsubr
          -735 -1142 -101 callsubr
          -103 callsubr
          -106 callsubr
          -104 callsubr
          -96 callsubr
        </CharString>
        <CharString name="Ohorn">
          1648 99 722 -101 callsubr
          56 callsubr
        </CharString>
        <CharString name="Ohornacute">
          1648 775 -82 callsubr
          -78 callsubr
          -618 -826 -101 callsubr
          56 callsubr
        </CharString>
        <CharString name="Ohorndotbelow">
          1648 99 722 -101 callsubr
          325 -177 240 -242 113 vhcurveto
          -5 26 29 -3 29 hhcurveto
          175 121 57 123 87 -61 78 -79 42 hvcurveto
          -47 hlineto
          20 -25 16 -55 -51 vvcurveto
          -123 -79 -82 -157 vhcurveto
          -86 -91 24 -119 hhcurveto
          -437 -284 -333 -413 hvcurveto
          -106 callsubr
          -104 callsubr
          -189 308 387 vhcurveto
          484 -937 -66 callsubr
          40 callsubr
        </CharString>
        <CharString name="Ohorngrave">
          1648 870 61 callgsubr
          -470 -1090 -101 callsubr
          56 callsubr
        </CharString>
        <CharString name="Ohornhookabove">
          1648 835 1864 rmoveto
          -87 -64 -41 -48 -31 hvcurveto
          -38 vlineto
          23 25 43 17 50 hhcurveto
          62 38 -30 -44 -49 -43 -42 -78 -52 hvcurveto
          50 hlineto
          145 61 50 55 68 vvcurveto
          70 -64 50 -96 vhcurveto
          -736 -1142 -101 callsubr
          56 callsubr
        </CharString>
        <CharString name="Ohorntilde">
          1648 922 90 callsubr
          83 callsubr
          -22 103 callsubr
          -48 -39 23 -52 hhcurveto
          -87 -68 -63 -174 3 hvcurveto
          53 hlineto
          92 5 21 callgsubr
          -823 -846 -101 callsubr
          56 callsubr
        </CharString>
        <CharString name="Ohungarumlaut">
          1640 718 -25 callgsubr
          -1128 -1097 -101 callsubr
          -103 callsubr
          -106 callsubr
          -104 callsubr
          -96 callsubr
        </CharString>
        <CharString name="Oinvertedbreve">
          1640 813 115 callsubr
          -714 -1156 -101 callsubr
          -103 callsubr
          -106 callsubr
          -104 callsubr
          -96 callsubr
        </CharString>
        <CharString name="Omacron">
          1640 569 -30 callsubr
          -470 -997 -101 callsubr
          -103 callsubr
          -106 callsubr
          -104 callsubr
          -96 callsubr
        </CharString>
        <CharString name="Omacronacute">
          1640 1070 -13 callgsubr
          -457 -954 -101 callsubr
          -103 callsubr
          -106 callsubr
          -104 callsubr
          -96 callsubr
        </CharString>
        <CharString name="Omacrongrave">
          1640 557 74 callsubr
          -41 callgsubr
          -457 -954 -101 callsubr
          -103 callsubr
          -106 callsubr
          -104 callsubr
          -96 callsubr
        </CharString>
        <CharString name="Omegagreek">
          1561 84 hmoveto
          585 283 hlineto
          -248 -22 callgsubr
          -243 -65 vhcurveto
          -283 585 vlineto
          47 343 rlineto
          -37 hlineto
          -170 -70 -137 -37 -331 hhcurveto
          113 vlineto
          335 51 208 -28 callgsubr
          -318 -144 35 172 -76 hvcurveto
          -38 hlineto
          endchar
        </CharString>
        <CharString name="Omegatonosgreek">
          1667 190 hmoveto
          585 283 hlineto
          -249 -22 callgsubr
          -242 -65 vhcurveto
          -283 585 vlineto
          46 343 rlineto
          -37 hlineto
          -170 -70 -137 -37 -330 hhcurveto
          113 vlineto
          335 51 207 -28 callgsubr
          -317 -144 35 172 -76 hvcurveto
          -38 hlineto
          -88 745 -66 callgsubr
          endchar
        </CharString>
        <CharString name="Omicrongreek">
          13 callsubr
          69 callsubr
          -103 callsubr
          -106 callsubr
          -104 callsubr
          -96 callsubr
        </CharString>
        <CharString name="Omicrontonosgreek">
          1696 155 722 -101 callsubr
          -103 callsubr
          -101 366 -66 callgsubr
          396 -349 rmoveto
          370 135 291 -104 callsubr
          -188 308 387 vhcurveto
          endchar
        </CharString>
        <CharString name="Oogonek">
          13 callsubr
          187 callsubr
        </CharString>
        <CharString name="Oogonekmacron">
          1640 569 -30 callsubr
          -470 -997 rmoveto
          187 callsubr
        </CharString>
        <CharString name="Oslash">
          13 callsubr
          178 callsubr
        </CharString>
        <CharString name="Oslashacute">
          1640 775 -2 callsubr
          -618 -826 rmoveto
          178 callsubr
        </CharString>
        <CharString name="Otilde">
          1640 922 90 callsubr
          83 callsubr
          153 callsubr
          -823 -846 -101 callsubr
          -103 callsubr
          -106 callsubr
          -104 callsubr
          -96 callsubr
        </CharString>
        <CharString name="Otildeacute">
          1640 1070 -74 callgsubr
          369 -196 12 callsubr
          -7 callsubr
          86 callsubr
          129 callsubr
          -827 -841 -101 callsubr
          -103 callsubr
          -106 callsubr
          -104 callsubr
          -96 callsubr
        </CharString>
        <CharString name="Otildedieresis">
          1640 671 206 callsubr
          -30 -220 12 callsubr
          -7 callsubr
          86 callsubr
          129 callsubr
          -827 -841 -101 callsubr
          -103 callsubr
          -106 callsubr
          -104 callsubr
          -96 callsubr
        </CharString>
        <CharString name="Otildemacron">
          1640 556 35 callsubr
          370 -334 12 callsubr
          -7 callsubr
          86 callsubr
          129 callsubr
          -827 -841 -101 callsubr
          -103 callsubr
          -106 callsubr
          -104 callsubr
          -96 callsubr
        </CharString>
        <CharString name="P">
          1265 1177 1026 57 callsubr
        </CharString>
        <CharString name="Pacute">
          1265 547 -82 callsubr
          98 callsubr
          688 -522 57 callsubr
        </CharString>
        <CharString name="Pdotaccent">
          1265 586 -69 callsubr
          -62 callsubr
          591 -562 57 callsubr
        </CharString>
        <CharString name="Pecyrillic">
          1574 1362 -61 callsubr
          -51 callsubr
          -1454 43 callsubr
          -107 callsubr
          -41 callsubr
          1218 718 -1218 vlineto
          -86 -21 -18 -124 51 callsubr
          99 callsubr
        </CharString>
        <CharString name="Phigreek">
          1785 88 720 rmoveto
          -327 287 -179 414 -13 vhcurveto
          -15 97 callsubr
          -52 callgsubr
          15 vlineto
          386 14 314 171 340 vvcurveto
          326 -287 178 -413 14 vhcurveto
          15 vlineto
          97 20 25 144 16 vhcurveto
          47 -535 -47 vlineto
          145 -16 19 -25 -97 vvcurveto
          -16 vlineto
          -386 -13 -315 -169 -341 vvcurveto
          1385 -2 rmoveto
          -269 -186 -169 -291 -17 vhcurveto
          920 vlineto
          308 -16 169 -173 -276 vvcurveto
          -1161 10 rmoveto
          268 185 170 292 17 vhcurveto
          -920 vlineto
          -308 16 -169 173 276 vvcurveto
          endchar
        </CharString>
        <CharString name="Pigreek">
          1543 1331 -61 callsubr
          -51 callsubr
          -1423 43 callsubr
          -107 callsubr
          -41 callsubr
          1218 687 -1218 vlineto
          -86 -20 -18 -125 51 callsubr
          99 callsubr
        </CharString>
        <CharString name="Psigreek">
          1721 964 186 rmoveto
          343 vlineto
          304 9 181 120 45 319 rrcurveto
          34 250 18 125 35 31 91 4 rlinecurve
          46 vlineto
          5 -28 -49 6 -48 hhcurveto
          -131 -68 -53 -175 -26 hvcurveto
          -38 -262 -36 -243 -89 -110 -195 -13 rlinecurve
          689 vlineto
          85 20 18 124 16 vhcurveto
          48 -496 -48 vlineto
          125 -16 20 -18 -85 vvcurveto
          -689 vlineto
          -195 12 -89 111 -36 243 -38 262 rcurveline
          175 -26 -69 53 -130 hhcurveto
          -48 -50 -6 -5 -27 hvcurveto
          -46 vlineto
          91 -4 35 -31 18 -125 rrcurveto
          34 -250 44 -319 182 -120 304 -9 rlinecurve
          -343 97 callsubr
          -52 callgsubr
          endchar
        </CharString>
        <CharString name="Q">
          13 callsubr
          -443 324 -277 349 -24 vhcurveto
          143 -125 rlineto
          -180 206 86 -30 107 hhcurveto
          88 84 30 39 66 hvcurveto
          42 vlineto
          -121 -15 -110 40 -195 154 -93 72 rcurveline
          314 90 195 286 342 vvcurveto
          -103 callsubr
          -106 callsubr
          332 303 190 -307 -387 -1 vhcurveto
          -370 -1 -135 -292 -332 hhcurveto
          -303 -189 308 387 hvcurveto
          endchar
        </CharString>
        <CharString name="R">
          1306 1163 1056 147 callsubr
          endchar
        </CharString>
        <CharString name="Racute">
          1306 578 -82 callsubr
          -78 callsubr
          643 -492 147 callsubr
          endchar
        </CharString>
        <CharString name="Rcaron">
          1306 828 -72 callsubr
          -19 callsubr
          279 -775 147 callsubr
          endchar
        </CharString>
        <CharString name="Rcommaaccent">
          -63 callgsubr
          -265 -1502 117 callsubr
          -99 callgsubr
        </CharString>
        <CharString name="Rdblgrave">
          1306 413 77 callsubr
          60 hlineto
          177 -73 callgsubr
          350 -490 147 callsubr
          endchar
        </CharString>
        <CharString name="Rdotaccent">
          1306 617 66 callsubr
          546 -532 147 callsubr
          endchar
        </CharString>
        <CharString name="Rdotbelow">
          -63 callgsubr
          -258 -1238 -66 callsubr
          10 callsubr
        </CharString>
        <CharString name="Rdotbelowmacron">
          1306 373 -55 callgsubr
          790 -663 147 callsubr
          -258 -1238 -66 callsubr
          10 callsubr
        </CharString>
        <CharString name="Rhogreek">
          1265 1177 1026 57 callsubr
        </CharString>
        <CharString name="Rinvertedbreve">
          1306 616 1878 rmoveto
          -156 -88 -120 -121 -15 1 -16 3 -14 hvcurveto
          2 callgsubr
          547 -822 147 callsubr
          endchar
        </CharString>
        <CharString name="Rlinebelow">
          -63 callgsubr
          -510 -1388 -73 callsubr
        </CharString>
        <CharString name="S">
          1152 564 -24 106 callsubr
          endchar
        </CharString>
        <CharString name="Sacute">
          1152 557 -2 callsubr
          65 -1572 106 callsubr
          endchar
        </CharString>
        <CharString name="Sacutedotaccent">
          1152 595 1753 rmoveto
          50 38 33 43 43 -38 33 -50 50 callgsubr
          -513 -146 rlineto
          -43 vlineto
          225 -1570 106 callsubr
          endchar
        </CharString>
        <CharString name="Scaron">
          1152 806 -72 callsubr
          -55 callsubr
          -298 -1855 106 callsubr
          endchar
        </CharString>
        <CharString name="Scarondotaccent">
          1152 595 1772 rmoveto
          50 38 33 43 42 -38 34 -50 -49 -38 -34 -42 -43 38 -33 49 hvcurveto
          264 58 callgsubr
          243 159 rlineto
          -295 -1731 106 callsubr
          endchar
        </CharString>
        <CharString name="Scedilla">
          1152 536 -462 172 callsubr
          64 91 rlineto
          257 12 206 165 244 vvcurveto
          202 -120 135 -249 87 vhcurveto
          -112 40 rlineto
          -178 63 -104 80 147 vvcurveto
          145 103 103 193 179 130 -112 -225 49 vhcurveto
          44 hlineto
          -13 306 rlineto
          51 -63 -137 48 -183 hhcurveto
          -280 -208 -147 -241 -198 131 -136 236 -81 hvcurveto
          113 -39 rlineto
          193 -68 90 -94 -147 vvcurveto
          -165 -122 -108 -180 -204 -169 118 248 -56 vhcurveto
          -43 hlineto
          13 -319 83 -60 149 -49 189 -5 rlinecurve
          -111 -148 87 callsubr
          53 -29 -56 -54 -50 -31 -64 -50 -53 -56 callgsubr
          endchar
        </CharString>
        <CharString name="Schwa">
          1471 678 -24 rmoveto
          424 271 302 449 482 -308 260 -406 -236 -166 -47 -59 -84 hvcurveto
          -13 -320 rlineto
          43 hlineto
          232 51 151 126 236 hhcurveto
          315 179 -250 -417 hvcurveto
          -21 -1 -21 -21 vvcurveto
          -1058 1 rlineto
          -4 -29 -3 -30 -30 vvcurveto
          -356 208 -251 401 vhcurveto
          -386 592 rmoveto
          14 1 16 14 vvcurveto
          837 3 rlineto
          -325 -25 -137 -246 -285 hhcurveto
          -294 -97 243 281 hvcurveto
          endchar
        </CharString>
        <CharString name="Scircumflex">
          1152 403 -63 callsubr
          -54 callsubr
          217 -1571 106 callsubr
          endchar
        </CharString>
        <CharString name="Scommaaccent">
          1152 564 -24 106 callsubr
          -5 -438 -52 callsubr
          15 callsubr
          175 callsubr
        </CharString>
        <CharString name="Sdotaccent">
          1152 595 -69 callsubr
          -62 callsubr
          -31 -1612 106 callsubr
          endchar
        </CharString>
        <CharString name="Sdotbelow">
          1152 564 -24 106 callsubr
          2 -174 -66 callsubr
          10 callsubr
        </CharString>
        <CharString name="Sdotbelowdotaccent">
          1152 595 -69 callsubr
          -62 callsubr
          -31 -1612 106 callsubr
          2 -174 -66 callsubr
          10 callsubr
        </CharString>
        <CharString name="Shacyrillic">
          2240 2028 -61 callsubr
          -51 callsubr
          -513 120 callsubr
          -506 120 callsubr
          -513 43 callsubr
          -107 callsubr
          2120 47 vlineto
          99 callsubr
        </CharString>
        <CharString name="Shchacyrillic">
          2276 2219 59 rmoveto
          -191 1213 hlineto
          89 -51 callsubr
          -513 120 callsubr
          -506 120 callsubr
          -513 43 callsubr
          -107 callsubr
          1809 vlineto
          188 38 -33 -286 79 hvcurveto
          53 hlineto
          endchar
        </CharString>
        <CharString name="Sigmagreek">
          1248 1105 1444 rmoveto
          -1048 -43 hlineto
          511 -701 -504 -595 rlineto
          -105 1082 vlineto
          17 411 rlineto
          -44 hlineto
          -223 -53 -76 -30 -293 hhcurveto
          -514 hlineto
          559 620 0 21 -425 592 339 -11 295 -10 72 -59 53 -214 rlinecurve
          42 hlineto
          endchar
        </CharString>
        <CharString name="Softsigncyrillic">
          1268 1181 174 callsubr
          136 callsubr
          39 callgsubr
          -232 -10 -24 callgsubr
        </CharString>
        <CharString name="T">
          1311 -31 callsubr
          -59 callsubr
          -40 callsubr
          -42 callsubr
          45 callsubr
          endchar
        </CharString>
        <CharString name="Taugreek">
          1311 -31 callsubr
          -59 callsubr
          -40 callsubr
          -42 callsubr
          45 callsubr
          endchar
        </CharString>
        <CharString name="Tbar">
          1311 272 710 rmoveto
          275 -524 hlineto
          -97 -19 -26 -145 -16 vhcurveto
          -47 -42 callsubr
          524 276 60 -276 620 99 callgsubr
          -14 347 -1191 0 -14 -59 callsubr
          -620 -275 vlineto
          endchar
        </CharString>
        <CharString name="Tcaron">
          1311 866 -72 callsubr
          -55 callsubr
          329 -387 rmoveto
          -1191 hlineto
          -14 -59 callsubr
          -40 callsubr
          -42 callsubr
          45 callsubr
          endchar
        </CharString>
        <CharString name="Tcedilla">
          1311 626 -462 rmoveto
          -6 callgsubr
          231 47 hlineto
          -146 16 -20 26 97 vvcurveto
          45 callsubr
          -14 347 -1191 0 -14 -59 callsubr
          -40 callsubr
          253 vlineto
          -125 -46 callgsubr
          15 23 -29 hvcurveto
          -1 -47 rlineto
          -44 35 71 -31 87 hhcurveto
          endchar
        </CharString>
        <CharString name="Tcircumflexbelow">
          1311 -31 callsubr
          -59 callsubr
          -40 callsubr
          -42 callsubr
          45 callsubr
          -813 -1550 rmoveto
          204 31 callgsubr
        </CharString>
        <CharString name="Tcommaaccent">
          1311 -31 callsubr
          -59 callsubr
          -40 callsubr
          -42 callsubr
          45 callsubr
          -616 -1559 117 callsubr
          -57 -48 17 24 -33 -36 callgsubr
        </CharString>
        <CharString name="Tdotaccent">
          1311 655 -69 callsubr
          -62 callsubr
          596 -144 rmoveto
          -1191 hlineto
          -14 -59 callsubr
          -40 callsubr
          -42 callsubr
          45 callsubr
          endchar
        </CharString>
        <CharString name="Tdotbelow">
          1311 -31 callsubr
          -59 callsubr
          -40 callsubr
          -42 callsubr
          45 callsubr
          -610 -1295 -46 callsubr
        </CharString>
        <CharString name="Tecyrillic">
          1311 -31 callsubr
          -59 callsubr
          -40 callsubr
          -42 callsubr
          45 callsubr
          endchar
        </CharString>
        <CharString name="Thetagreek">
          1642 821 -24 rmoveto
          437 285 334 413 463 -357 282 -365 -438 -285 -333 -413 -463 357 -283 366 hvcurveto
          11 67 rmoveto
          -307 -189 307 389 371 136 291 337 307 191 -306 -389 -371 -138 -292 -337 hvcurveto
          -317 450 rmoveto
          39 hlineto
          145 24 39 52 152 hhcurveto
          100 hlineto
          150 41 -52 -145 23 hvcurveto
          40 447 -40 hlineto
          -142 -23 -41 -50 -150 hhcurveto
          -100 hlineto
          -152 -39 50 142 -24 hvcurveto
          -39 hlineto
          endchar
        </CharString>
        <CharString name="Thorn">
          1245 1176 746 rmoveto
          262 -237 125 -364 vhcurveto
          -147 126 hlineto
          97 19 25 146 16 vhcurveto
          47 -533 -47 vlineto
          134 -16 18 -20 -88 vvcurveto
          -1102 vlineto
          -87 -18 -21 -134 -16 vhcurveto
          -47 -16 callsubr
          152 147 vlineto
          344 257 136 272 hvcurveto
          -232 -16 rmoveto
          -211 -147 -115 -273 -8 vhcurveto
          -96 -3 0 686 96 -3 rlineto
          274 -9 146 -130 -207 vvcurveto
          endchar
        </CharString>
        <CharString name="Tlinebelow">
          1311 -31 callsubr
          -59 callsubr
          -40 callsubr
          -42 callsubr
          45 callsubr
          -862 -1445 -73 callsubr
        </CharString>
        <CharString name="Tsecyrillic">
          1610 1553 59 rmoveto
          -191 1213 hlineto
          89 -51 callsubr
          -513 -48 vlineto
          124 -16 21 -18 -85 vvcurveto
          -1218 -718 1218 vlineto
          85 20 18 125 16 vhcurveto
          48 -513 43 callsubr
          -107 callsubr
          1143 vlineto
          188 38 -33 -286 78 hvcurveto
          54 hlineto
          endchar
        </CharString>
        <CharString name="Tshecyrillic">
          1761 -31 callsubr
          -33 callgsubr
          501 vlineto
          46 76 99 21 118 hhcurveto
          219 107 -126 -247 hvcurveto
          -373 361 47 vlineto
          -125 16 -20 18 86 vvcurveto
          214 vlineto
          318 -199 128 -284 -149 -123 -35 -54 -80 vhcurveto
          650 75 callgsubr
        </CharString>
        <CharString name="U">
          1497 177 1277 -84 callsubr
        </CharString>
        <CharString name="Uacute">
          1497 770 -2 callsubr
          -535 -271 -84 callsubr
        </CharString>
        <CharString name="Ubreve">
          1497 808 19 callsubr
          -631 -315 -84 callsubr
        </CharString>
        <CharString name="Ubrevecyrillic">
          1404 774 1595 rmoveto
          177 105 107 115 64 -41 40 -55 -55 -38 -41 -51 -52 39 -39 48 8 8 2 2 8 hvcurveto
          -55 -38 -72 -36 -95 hhcurveto
          -95 -72 36 55 -37 hvcurveto
          -2 7 8 -2 9 hhcurveto
          47 40 39 52 51 -39 41 -54 -55 -100 callgsubr
          -531 -1486 183 callsubr
        </CharString>
        <CharString name="Ucaron">
          1497 1019 -72 callsubr
          -55 callsubr
          -898 -554 -84 callsubr
        </CharString>
        <CharString name="Ucircumflex">
          1497 616 -63 callsubr
          -54 callsubr
          -383 -270 -84 callsubr
        </CharString>
        <CharString name="Ucircumflexbelow">
          123 callsubr
          402 -1730 -26 callsubr
          57 -8 callsubr
          -211 -320 rlineto
          endchar
        </CharString>
        <CharString name="Ucyrillic">
          1404 243 109 183 callsubr
        </CharString>
        <CharString name="Udblgrave">
          1497 605 77 callsubr
          59 hlineto
          178 -73 callgsubr
          -828 -269 -84 callsubr
        </CharString>
        <CharString name="Udieresis">
          1497 650 -32 callsubr
          -68 callsubr
          -29 callsubr
          -68 callsubr
          -790 -310 -84 callsubr
        </CharString>
        <CharString name="Udieresisacute">
          1497 1065 -74 callgsubr
          114 -198 rmoveto
          45 -71 callsubr
          48 callsubr
          -40 34 -31 50 callsubr
          92 callsubr
          42 callsubr
          -774 -284 -84 callsubr
        </CharString>
        <CharString name="Udieresisbelow">
          123 callsubr
          411 -1665 -1 callgsubr
        </CharString>
        <CharString name="Udieresiscaron">
          1497 1065 1951 rmoveto
          -257 -88 -257 88 0 -42 239 -153 37 0 238 153 rlineto
          -399 -348 rmoveto
          45 -71 callsubr
          48 callsubr
          -40 34 -31 50 callsubr
          92 callsubr
          42 callsubr
          -774 -284 -84 callsubr
        </CharString>
        <CharString name="Udieresisgrave">
          1497 552 79 callgsubr
          114 -388 rmoveto
          45 -71 callsubr
          48 callsubr
          -40 34 -31 50 callsubr
          92 callsubr
          42 callsubr
          -774 -284 -84 callsubr
        </CharString>
        <CharString name="Udieresismacron">
          1497 551 35 callsubr
          115 -336 rmoveto
          45 -71 callsubr
          48 callsubr
          -40 34 -31 50 callsubr
          92 callsubr
          42 callsubr
          -774 -284 -84 callsubr
        </CharString>
        <CharString name="Udotbelow">
          123 callsubr
          606 -1475 -46 callsubr
        </CharString>
        <CharString name="Ugrave">
          1497 865 2 callsubr
          -387 -535 -84 callsubr
        </CharString>
        <CharString name="Uhookabove">
          1497 829 157 callsubr
          -652 -587 -84 callsubr
        </CharString>
        <CharString name="Uhorn">
          1591 185 542 54 callsubr
        </CharString>
        <CharString name="Uhornacute">
          1591 796 -82 callsubr
          -78 callsubr
          -553 -1006 54 callsubr
        </CharString>
        <CharString name="Uhorndotbelow">
          1591 185 542 rmoveto
          -400 279 -166 292 360 204 220 340 4 vhcurveto
          6 879 rlineto
          -2 15 15 -1 15 hhcurveto
          146 76 62 101 83 -56 80 -76 42 hvcurveto
          -47 hlineto
          19 -25 16 -52 -53 vvcurveto
          -118 -83 -88 -189 vhcurveto
          -105 -47 hlineto
          153 -20 17 -20 -113 vvcurveto
          5 -697 rlineto
          -303 2 -165 -172 -261 hhcurveto
          -245 -181 152 326 hvcurveto
          714 vlineto
          93 20 20 149 20 vhcurveto
          47 -538 -47 vlineto
          133 -20 20 -20 -93 vvcurveto
          634 -1462 -66 callsubr
          40 callsubr
        </CharString>
        <CharString name="Uhorngrave">
          1591 892 2 callsubr
          -406 -1270 54 callsubr
        </CharString>
        <CharString name="Uhornhookabove">
          1591 856 -87 callgsubr
          8 callgsubr
          -64 50 -97 vhcurveto
          -671 -1322 54 callsubr
        </CharString>
        <CharString name="Uhorntilde">
          1591 944 162 callsubr
          -759 -1026 54 callsubr
        </CharString>
        <CharString name="Uhungarumlaut">
          1497 713 -25 callgsubr
          -1045 -542 -84 callsubr
        </CharString>
        <CharString name="Uinvertedbreve">
          1497 808 115 callsubr
          -631 -601 -84 callsubr
        </CharString>
        <CharString name="Umacron">
          1497 564 -30 callsubr
          -387 -442 -84 callsubr
        </CharString>
        <CharString name="Umacrondieresis">
          1497 666 206 callsubr
          -380 -193 rmoveto
          475 86 -475 hlineto
          -394 -399 -84 callsubr
        </CharString>
        <CharString name="Uogonek">
          1497 808 -482 rmoveto
          78 67 36 50 28 hvcurveto
          -1 47 rlineto
          -19 -17 -29 -14 -36 hhcurveto
          -74 -55 79 104 69 18 65 30 44 hvcurveto
          317 28 176 216 5 324 rrcurveto
          7 654 2 146 19 34 131 15 rlinecurve
          48 -401 -47 vlineto
          142 -17 18 -32 2 204 callsubr
          -54 callgsubr
          vhcurveto
          6 6 0 6 hhcurveto
          -90 -81 -58 -96 -96 vvcurveto
          -112 83 -73 108 vhcurveto
          endchar
        </CharString>
        <CharString name="Upsilondieresisgreek">
          1324 569 -32 callsubr
          94 callsubr
          -29 callsubr
          94 callsubr
          -659 -391 -60 callsubr
        </CharString>
        <CharString name="Upsilongreek">
          1324 227 1196 -60 callsubr
        </CharString>
        <CharString name="Upsilontonosgreek">
          1628 531 1196 rmoveto
          327 -534 rlineto
          -476 vlineto
          -97 -20 -26 -144 -39 callgsubr
          -20 26 97 vvcurveto
          488 vlineto
          304 168 callsubr
          -95 -168 rrcurveto
          -252 -443 -280 470 -85 142 17 177 callsubr
          -477 -108 -66 callgsubr
          endchar
        </CharString>
        <CharString name="Uring">
          1497 582 1732 rmoveto
          -104 105 -66 121 122 105 66 104 103 -105 68 -122 -122 -104 -68 -103 vhcurveto
          133 hmoveto
          71 38 50 55 55 38 -50 -71 -72 -38 -49 -55 -55 -38 49 72 vhcurveto
          -538 -455 -84 callsubr
        </CharString>
        <CharString name="Utilde">
          1497 917 90 callsubr
          83 callsubr
          153 callsubr
          -740 -291 -84 callsubr
        </CharString>
        <CharString name="Utildeacute">
          1497 1065 -74 callgsubr
          369 -196 12 callsubr
          -7 callsubr
          86 callsubr
          129 callsubr
          -744 -286 -84 callsubr
        </CharString>
        <CharString name="Utildebelow">
          123 callsubr
          712 -1680 rmoveto
          83 66 102 callsubr
          -91 callgsubr
          -30 hvcurveto
          -28 125 callsubr
          5 22 93 callsubr
          85 callsubr
        </CharString>
        <CharString name="V">
          80 callgsubr
          endchar
        </CharString>
        <CharString name="Vdotbelow">
          80 callgsubr
          500 -1395 -46 callsubr
        </CharString>
        <CharString name="Vecyrillic">
          1320 1231 413 113 callsubr
        </CharString>
        <CharString name="Vtilde">
          1373 853 162 callsubr
          -666 -371 rmoveto
          195 callsubr
          endchar
        </CharString>
        <CharString name="W">
          2121 186 1197 18 callsubr
        </CharString>
        <CharString name="Wacute">
          2121 1075 -2 callsubr
          -831 -351 18 callsubr
        </CharString>
        <CharString name="Wcircumflex">
          2121 921 -63 callsubr
          -54 callsubr
          -679 -350 18 callsubr
        </CharString>
        <CharString name="Wdieresis">
          2121 955 -32 callsubr
          -68 callsubr
          -29 callsubr
          -68 callsubr
          -1086 -390 18 callsubr
        </CharString>
        <CharString name="Wdotaccent">
          2121 1113 -69 callsubr
          -62 callsubr
          -927 -391 18 callsubr
        </CharString>
        <CharString name="Wdotbelow">
          2121 186 1197 rmoveto
          390 -1201 111 0 377 1187 367 -1187 111 0 381 1166 60 187 35 33 114 15 rlinecurve
          47 -406 -47 vlineto
          150 -20 11 -38 -51 -172 rrcurveto
          -277 -933 -282 962 -46 156 11 28 136 17 rlinecurve
          47 -511 -47 vlineto
          145 -21 17 -27 -49 -164 rrcurveto
          -277 -951 -292 963 -43 145 15 38 140 17 rlinecurve
          47 -534 -47 vlineto
          104 -13 41 -28 52 -159 rrcurveto
          878 -1395 -66 callsubr
          10 callsubr
        </CharString>
        <CharString name="Wgrave">
          2121 1170 2 callsubr
          -683 -615 18 callsubr
        </CharString>
        <CharString name="X">
          1352 283 286 52 callsubr
        </CharString>
        <CharString name="Xdieresis">
          1352 579 1587 rmoveto
          -45 callsubr
          317 hmoveto
          -45 callsubr
          -613 -1301 52 callsubr
        </CharString>
        <CharString name="Xdotaccent">
          1352 737 66 callsubr
          -454 -1302 52 callsubr
        </CharString>
        <CharString name="Xigreek">
          1342 1245 1444 rmoveto
          -1149 hlineto
          -14 -360 rlineto
          43 hlineto
          176 51 82 36 254 hhcurveto
          318 hlineto
          254 82 -36 -176 50 hvcurveto
          44 hlineto
          -678 -381 rmoveto
          177 hlineto
          182 42 -47 -144 26 hvcurveto
          40 436 -40 hlineto
          -143 -26 -42 -43 -182 hhcurveto
          -177 hlineto
          -182 -42 43 143 -25 97 callgsubr
          673 -703 rmoveto
          91 callgsubr
          -276 hlineto
          -293 -76 29 220 -52 hvcurveto
          -43 hlineto
          17 -400 rlineto
          endchar
        </CharString>
        <CharString name="Xigreek.1">
          1343 583 703 rmoveto
          60 -552 -110 hlineto
          -291 -77 30 219 -52 hvcurveto
          -42 hlineto
          16 -400 1169 0 91 callgsubr
          -111 552 61 hlineto
          183 41 -47 -144 25 hvcurveto
          41 436 -41 hlineto
          -143 -25 -41 -43 -183 hhcurveto
          -61 534 132 hlineto
          253 83 -36 -176 51 hvcurveto
          43 hlineto
          -15 360 -1148 0 -15 -360 rlineto
          43 hlineto
          176 50 83 36 254 hhcurveto
          130 -534 -60 hlineto
          -182 -41 43 143 -26 97 callgsubr
          endchar
        </CharString>
        <CharString name="Y">
          1324 227 1196 -60 callsubr
        </CharString>
        <CharString name="Yacute">
          1324 688 -82 callsubr
          -78 callsubr
          -403 -352 -60 callsubr
        </CharString>
        <CharString name="Ycircumflex">
          1324 534 1547 rmoveto
          203 -102 callgsubr
          84 callsubr
          -251 -351 -60 callsubr
        </CharString>
        <CharString name="Ydieresis">
          1324 569 -32 callsubr
          94 callsubr
          -29 callsubr
          94 callsubr
          -659 -391 -60 callsubr
        </CharString>
        <CharString name="Ydotaccent">
          1324 727 -69 callsubr
          -81 callgsubr
          -500 -392 -60 callsubr
        </CharString>
        <CharString name="Ydotbelow">
          1324 227 1196 rmoveto
          328 -534 rlineto
          -476 vlineto
          -97 -20 -26 -145 -39 callgsubr
          -19 26 97 vvcurveto
          488 vlineto
          303 168 callsubr
          -94 -168 rrcurveto
          -252 -443 -281 470 -84 142 16 177 callsubr
          442 -1394 -66 callsubr
          10 callsubr
        </CharString>
        <CharString name="Yericyrillic">
          1823 1181 174 callsubr
          136 callsubr
          39 callgsubr
          430 -268 -77 callsubr
          -100 callsubr
          -107 callsubr
          34 callsubr
          -662 258 -24 callgsubr
        </CharString>
        <CharString name="Ygrave">
          1324 784 2 callsubr
          -256 -616 -60 callsubr
        </CharString>
        <CharString name="Yhookabove">
          1324 748 -87 callgsubr
          142 callsubr
          144 61 51 55 68 vvcurveto
          70 -64 50 -97 vhcurveto
          -521 -668 -60 callsubr
        </CharString>
        <CharString name="Yicyrillic">
          640 162 1587 rmoveto
          -45 callsubr
          317 hmoveto
          -45 callsubr
          -51 -1415 -77 callsubr
          -100 callsubr
          -107 callsubr
          -80 callsubr
        </CharString>
        <CharString name="Ymacron">
          1324 483 -30 callsubr
          -256 -523 -60 callsubr
        </CharString>
        <CharString name="Ytilde">
          1324 836 162 callsubr
          -609 -372 -60 callsubr
        </CharString>
        <CharString name="Z">
          1245 1152 hmoveto
          -70 callsubr
          29 callsubr
        </CharString>
        <CharString name="Zacute">
          1245 587 -82 callsubr
          -78 callsubr
          623 -1548 rmoveto
          -70 callsubr
          29 callsubr
        </CharString>
        <CharString name="Zcaron">
          1245 837 -72 callsubr
          -19 callsubr
          259 -1831 rmoveto
          -70 callsubr
          29 callsubr
        </CharString>
        <CharString name="Zcircumflex">
          1245 433 1547 rmoveto
          203 -102 callgsubr
          84 callsubr
          775 -1547 rmoveto
          -70 callsubr
          29 callsubr
        </CharString>
        <CharString name="Zdotaccent">
          1245 626 -69 callsubr
          -81 callgsubr
          526 -1588 rmoveto
          -70 callsubr
          29 callsubr
        </CharString>
        <CharString name="Zdotbelow">
          -17 callgsubr
          547 -207 rmoveto
          -54 -43 -41 -53 -53 43 -43 54 55 43 43 53 53 -43 41 -55 hvcurveto
          endchar
        </CharString>
        <CharString name="Zecyrillic">
          1229 1140 416 rmoveto
          236 -198 107 -247 19 vhcurveto
          212 32 174 115 192 vvcurveto
          218 -169 133 -333 -195 -148 -54 -60 -78 vhcurveto
          -13 -284 rlineto
          43 hlineto
          221 54 121 109 203 hhcurveto
          208 84 -132 -178 -189 -116 -113 -211 hvcurveto
          -145 -56 145 hlineto
          245 136 -119 -214 -231 -145 -124 -228 -189 -138 94 244 -58 hvcurveto
          -43 hlineto
          15 -284 rlineto
          -63 85 160 -59 181 hhcurveto
          324 264 148 292 hvcurveto
          endchar
        </CharString>
        <CharString name="Zetagreek">
          1245 1152 hmoveto
          -70 callsubr
          29 callsubr
        </CharString>
        <CharString name="Zhecyrillic">
          1976 298 hmoveto
          456 722 126 1 rlineto
          -556 vlineto
          -86 -18 -18 -128 -16 vhcurveto
          -47 498 47 vlineto
          -128 16 -18 18 86 vvcurveto
          556 vlineto
          126 -1 456 -722 rlineto
          312 43 hlineto
          -80 21 -51 47 -134 211 rrcurveto
          -350 553 282 313 127 142 65 48 111 19 rlinecurve
          47 -426 -47 vlineto
          151 -13 1 -50 -96 -115 rrcurveto
          -368 -438 -126 -2 rlineto
          498 vlineto
          86 18 18 128 16 vhcurveto
          47 -498 -47 vlineto
          128 -16 18 -18 -86 vvcurveto
          -498 vlineto
          -126 2 -367 438 -96 115 0 50 152 13 rlinecurve
          47 -427 -47 vlineto
          112 -19 63 -49 126 -140 rrcurveto
          290 -322 -345 -545 -135 -211 -51 -47 -81 -21 rlinecurve
          -43 vlineto
          endchar
        </CharString>
        <CharString name="Zlinebelow">
          -17 callgsubr
          295 -356 rmoveto
          504 110 -504 hlineto
          endchar
        </CharString>
        <CharString name="a">
          1043 372 -19 -102 callsubr
          -94 callsubr
        </CharString>
        <CharString name="a.dnum">
          648 224 -11 rmoveto
          85 68 35 49 26 hvcurveto
          -52 11 49 -29 60 hhcurveto
          42 36 12 15 -20 callgsubr
          -72 -38 31 -28 40 40 30 29 39 27 -16 23 201 callsubr
        </CharString>
        <CharString name="a.numr">
          632 224 689 rmoveto
          85 68 36 48 26 hvcurveto
          -52 11 49 -28 60 hhcurveto
          42 36 12 14 -20 callgsubr
          -71 -39 31 -28 40 40 30 29 39 28 -16 22 201 callsubr
        </CharString>
        <CharString name="a.sups">
          648 224 862 rmoveto
          85 68 35 48 26 hvcurveto
          -52 11 49 -28 60 hhcurveto
          42 36 12 15 21 hvcurveto
          33 vlineto
          -3 -7 -9 -1 -9 hhcurveto
          -31 -26 19 43 hvcurveto
          242 vlineto
          120 -85 54 -138 -136 -96 -55 -72 -39 31 -28 40 40 30 29 39 28 -16 23 -23 10 vhcurveto
          9 23 28 6 29 hhcurveto
          81 50 -36 -91 hvcurveto
          -45 vlineto
          -116 -24 rlineto
          -156 -33 -61 -52 -78 vvcurveto
          -76 66 -52 67 callgsubr
          -163 vlineto
          -28 -19 -35 -16 -44 hhcurveto
          -52 -39 30 55 hvcurveto
          endchar
        </CharString>
        <CharString name="aacute">
          1043 442 -81 callsubr
          -11 -1130 -102 callsubr
          -94 callsubr
        </CharString>
        <CharString name="abreve">
          1043 490 -107 callgsubr
          -118 -1161 -102 callsubr
          -94 callsubr
        </CharString>
        <CharString name="abreveacute">
          1043 740 -34 callsubr
          250 -272 -23 callsubr
          -118 -1117 -102 callsubr
          -94 callsubr
        </CharString>
        <CharString name="abrevecyrillic">
          1043 490 -77 callgsubr
          -55 -38 -42 -52 -51 40 -38 callgsubr
          -68 -38 -95 -89 callgsubr
          -11 callgsubr
          -118 -1155 -102 callsubr
          -94 callsubr
        </CharString>
        <CharString name="abrevedotbelow">
          1043 490 -107 callgsubr
          -118 -1161 -102 callsubr
          53 callsubr
          244 -654 -57 callsubr
        </CharString>
        <CharString name="abrevegrave">
          1043 240 -21 callsubr
          250 -495 -23 callsubr
          -118 -1117 -102 callsubr
          -94 callsubr
        </CharString>
        <CharString name="abrevehookabove">
          1043 484 53 callgsubr
          43 hhcurveto
          57 -43 callgsubr
          -79 42 -82 vhcurveto
          6 -479 -23 callsubr
          -118 -1117 -102 callsubr
          -94 callsubr
        </CharString>
        <CharString name="abrevetilde">
          1043 599 71 callsubr
          -27 -21 -42 -36 callsubr
          26 26 -40 callgsubr
          -10 43 hhcurveto
          -109 -296 -23 callsubr
          -118 -1117 -102 callsubr
          -94 callsubr
        </CharString>
        <CharString name="acaron">
          1043 709 -48 callsubr
          -396 -1501 -102 callsubr
          -94 callsubr
        </CharString>
        <CharString name="acircumflex">
          1043 271 -49 callsubr
          160 -1130 -102 callsubr
          -94 callsubr
        </CharString>
        <CharString name="acircumflexacute">
          1043 740 -34 callsubr
          -281 vmoveto
          -47 callsubr
          132 -1160 -102 callsubr
          -94 callsubr
        </CharString>
        <CharString name="acircumflexdotbelow">
          1043 271 -49 callsubr
          160 -1130 -102 callsubr
          53 callsubr
          244 -654 -57 callsubr
        </CharString>
        <CharString name="acircumflexgrave">
          1043 240 -21 callsubr
          -504 vmoveto
          -47 callsubr
          132 -1160 -102 callsubr
          -94 callsubr
        </CharString>
        <CharString name="acircumflexhookabove">
          1043 683 1577 rmoveto
          -72 -54 -34 -31 -29 -68 callgsubr
          -32 -26 -62 36 callgsubr
          132 -1160 -102 callsubr
          -94 callsubr
        </CharString>
        <CharString name="acircumflextilde">
          1043 599 71 callsubr
          -27 -21 -42 -36 callsubr
          26 26 -40 callgsubr
          139 callsubr
          132 -1160 -102 callsubr
          -94 callsubr
        </CharString>
        <CharString name="acute">
          1024 464 -81 callsubr
          endchar
        </CharString>
        <CharString name="acutecmb">
          0 -48 -81 callsubr
          endchar
        </CharString>
        <CharString name="acutecmb.short">
          0 -39 1081 rmoveto
          298 266 rlineto
          6 -78 callsubr
          endchar
        </CharString>
        <CharString name="acutedotaccentcmb">
          0 1358 vmoveto
          52 40 39 52 49 -40 40 -52 -51 -41 -40 -49 -52 41 -39 51 hvcurveto
          250 -164 rmoveto
          134 vlineto
          -500 -172 rlineto
          -52 vlineto
          endchar
        </CharString>
        <CharString name="acutedotaccentcmb.short">
          0 1753 vmoveto
          49 38 33 43 43 -38 33 -49 50 callgsubr
          -514 -146 rlineto
          -43 vlineto
          endchar
        </CharString>
        <CharString name="acyrillic">
          1043 372 -19 -102 callsubr
          -94 callsubr
        </CharString>
        <CharString name="adblgrave">
          1043 244 1467 rmoveto
          -191 -9 hlineto
          293 -347 rlineto
          60 hlineto
          184 356 rmoveto
          8 callsubr
          -315 -1130 -102 callsubr
          -94 callsubr
        </CharString>
        <CharString name="adieresis">
          1043 281 1187 rmoveto
          59 49 46 59 59 -49 46 -59 -60 81 callsubr
          48 46 59 59 -48 46 -60 -60 -9 callsubr
          -327 -1206 -102 callsubr
          -94 callsubr
        </CharString>
        <CharString name="adieresismacron">
          1043 239 140 callsubr
          -18 callsubr
          -39 callsubr
          -269 -1138 -102 callsubr
          -94 callsubr
        </CharString>
        <CharString name="adotaccent">
          1043 490 -65 callsubr
          -118 -1199 -102 callsubr
          -94 callsubr
        </CharString>
        <CharString name="adotbelow">
          1043 372 -19 -102 callsubr
          53 callsubr
          244 -654 -57 callsubr
        </CharString>
        <CharString name="adotmacron">
          1043 239 -64 callgsubr
          51 41 38 52 49 -41 40 -51 -52 -40 -40 -49 -52 40 -38 52 hvcurveto
          -118 -1139 -102 callsubr
          -94 callsubr
        </CharString>
        <CharString name="ae">
          1607 374 -19 144 callsubr
        </CharString>
        <CharString name="aeacute">
          1607 752 -81 callsubr
          -319 -1130 144 callsubr
        </CharString>
        <CharString name="aemacron">
          1607 529 -43 callsubr
          -155 -1361 144 callsubr
        </CharString>
        <CharString name="agrave">
          1043 538 -20 callsubr
          154 -1477 -102 callsubr
          -94 callsubr
        </CharString>
        <CharString name="ahookabove">
          1043 518 75 callsubr
          9 callgsubr
          -108 vhcurveto
          -146 -1492 -102 callsubr
          -94 callsubr
        </CharString>
        <CharString name="ainvertedbreve">
          1043 490 1451 rmoveto
          -176 -98 9 callsubr
          21 callsubr
          -118 -1470 -102 callsubr
          -94 callsubr
        </CharString>
        <CharString name="alphagreek">
          1239 459 -19 179 callsubr
        </CharString>
        <CharString name="alphatonosgreek">
          1239 593 1111 rmoveto
          196 347 rlineto
          8 -189 vlineto
          -60 -355 rlineto
          -81 -1130 179 callsubr
        </CharString>
        <CharString name="amacron">
          1043 219 -43 callsubr
          153 -1361 -102 callsubr
          -94 callsubr
        </CharString>
        <CharString name="ampersand">
          1564 503 -22 rmoveto
          189 146 95 176 143 hvcurveto
          260 -249 rlineto
          320 43 hlineto
          -77 24 -71 53 -158 149 rrcurveto
          -153 146 143 201 128 178 49 37 105 12 rlinecurve
          47 -423 -47 vlineto
          147 -20 25 -49 -102 -155 rrcurveto
          -108 -168 -341 326 -16 15 -15 15 -15 14 rlinecurve
          213 93 114 111 149 vvcurveto
          166 -139 129 -234 -226 -155 -146 -182 -125 53 -100 135 -144 vhcurveto
          -238 -92 -116 -139 -176 vvcurveto
          -227 175 -160 242 vhcurveto
          -73 1229 rmoveto
          122 1 82 74 120 hhcurveto
          128 75 -105 -134 -131 -62 -102 -128 -77 hvcurveto
          -156 155 -60 87 111 vvcurveto
          -156 -752 rmoveto
          119 64 95 135 69 vhcurveto
          28 -29 32 -32 36 -34 379 -363 rcurveline
          -127 -103 -107 -58 -113 hhcurveto
          -189 -162 143 217 hvcurveto
          endchar
        </CharString>
        <CharString name="anoteleiagreek">
          493 247 748 rmoveto
          69 57 57 71 70 -57 56 -69 -69 -57 -56 -70 -71 57 -57 69 hvcurveto
          endchar
        </CharString>
        <CharString name="aogonek">
          1045 372 -19 -102 callsubr
          15 14 1 2 13 hvcurveto
          -3 -2 rlineto
          -178 -108 -69 -93 -101 vvcurveto
          -102 83 -65 100 86 68 34 49 34 vhcurveto
          46 vlineto
          -19 -18 -36 -12 -39 hhcurveto
          -57 -52 41 79 92 52 85 142 116 hvcurveto
          43 vlineto
          -5 -12 -17 -3 -19 hhcurveto
          -60 -47 35 89 hvcurveto
          506 vlineto
          209 -146 93 -222 -218 -171 -93 -128 -61 49 -45 59 60 47 45 58 53 -38 43 -47 7 vhcurveto
          33 48 67 17 73 hhcurveto
          148 98 -66 -187 hvcurveto
          -97 vlineto
          -213 -47 rlineto
          -271 -59 -111 -91 -153 vvcurveto
          -145 123 -99 163 vhcurveto
          -86 279 rmoveto
          116 68 70 207 45 vhcurveto
          120 27 rlineto
          -342 vlineto
          -65 -43 -72 -36 -90 hhcurveto
          -108 -82 68 117 hvcurveto
          endchar
        </CharString>
        <CharString name="approxequal">
          1135 830 705 rmoveto
          -153 -162 241 -183 hhcurveto
          -147 -101 -101 -224 hvcurveto
          76 hlineto
          172 3 68 69 88 callgsubr
          224 hvcurveto
          -77 hlineto
          -172 -2 -68 -69 -96 hhcurveto
          -454 vmoveto
          -7 callgsubr
          68 88 callgsubr
          225 hvcurveto
          -77 hlineto
          -172 -2 -68 -69 -96 hhcurveto
          endchar
        </CharString>
        <CharString name="aring">
          1043 239 32 callsubr
          116 101 callsubr
          -136 70 callsubr
          143 callsubr
          -14 -1315 -102 callsubr
          -94 callsubr
        </CharString>
        <CharString name="aringacute">
          1043 740 1461 rmoveto
          134 vlineto
          -500 208 callsubr
          -26 30 40 40 26 30 43 hvcurveto
          49 hlineto
          45 23 -30 -40 -40 -23 -30 -45 hvcurveto
          -142 -1153 -102 callsubr
          -94 callsubr
        </CharString>
        <CharString name="aringbelow">
          1043 372 -19 -102 callsubr
          53 callsubr
          -7 -553 rmoveto
          -106 116 -67 135 134 116 67 106 105 -115 67 -135 -136 -115 -67 -105 vhcurveto
          147 hmoveto
          71 42 50 62 61 42 -50 -71 -73 -42 -48 -61 -62 -42 49 72 vhcurveto
          endchar
        </CharString>
        <CharString name="asciicircum">
          1135 548 1444 rmoveto
          -421 -575 58 -54 382 520 381 -520 61 54 -422 575 rlineto
          endchar
        </CharString>
        <CharString name="asciitilde">
          1135 830 498 rmoveto
          -7 callgsubr
          69 95 154 162 -242 183 hhcurveto
          147 101 102 224 hvcurveto
          -77 hlineto
          -172 -2 -68 -69 -96 hhcurveto
          endchar
        </CharString>
        <CharString name="asterisk">
          719 347 1157 rmoveto
          26 hlineto
          54 209 rlineto
          62 17 -39 40 -45 hhcurveto
          -47 -38 -40 -62 18 hvcurveto
          85 -210 rmoveto
          11 -23 202 57 rlineto
          63 17 15 53 -23 39 -24 41 -54 14 -44 -48 rrcurveto
          -194 -173 rmoveto
          11 23 -145 150 rlineto
          -44 47 -55 -13 -23 -41 -23 -39 15 -54 62 -16 rrcurveto
          213 -85 rmoveto
          -11 23 -202 -57 rlineto
          -61 -17 -16 -53 23 -39 23 -41 56 -13 43 47 rrcurveto
          193 173 rmoveto
          -11 -22 146 -151 rlineto
          44 -47 54 13 24 41 23 39 -15 53 -62 17 rrcurveto
          -219 31 rmoveto
          -25 hlineto
          -55 -208 rlineto
          -62 -18 38 -41 47 hhcurveto
          46 39 41 62 -18 hvcurveto
          endchar
        </CharString>
        <CharString name="at">
          1955 570 360 rmoveto
          -193 74 -133 144 119 125 87 164 67 vhcurveto
          0 -8 -39 -1 hvcurveto
          -148 -25 75 -88 169 hhcurveto
          257 291 245 426 435 -340 282 -456 -521 -446 -406 -586 -494 346 -330 429 163 174 38 79 102 hvcurveto
          1 48 rlineto
          -75 -128 -139 -24 -158 hhcurveto
          -400 -316 296 472 533 412 383 483 405 314 -239 -416 -396 -261 -201 -176 -64 -50 34 123 26 hvcurveto
          154 720 -69 0 -123 -122 rlineto
          85 -31 -65 56 -107 hhcurveto
          -263 -184 -316 -299 hvcurveto
          181 -18 rmoveto
          256 117 308 185 80 49 -58 -86 13 vhcurveto
          -74 -346 rlineto
          -143 -30 -111 -151 -115 hhcurveto
          -82 -32 94 126 hvcurveto
          endchar
        </CharString>
        <CharString name="atilde">
          1043 603 1171 rmoveto
          89 72 79 callsubr
          -90 callgsubr
          -90 -71 -67 -185 4 hvcurveto
          53 hlineto
          99 5 24 31 41 hhcurveto
          28 24 80 callsubr
          -231 -1190 -102 callsubr
          -94 callsubr
        </CharString>
        <CharString name="austral">
          1384 227 267 rmoveto
          -63 -178 -33 -27 -113 -15 rrcurveto
          -47 403 47 vlineto
          -148 20 -22 32 55 166 rrcurveto
          43 125 574 0 48 -142 50 -145 -21 -38 -142 -18 rlinecurve
          -47 518 47 vlineto
          -103 13 -36 29 -56 158 -52 143 rcurveline
          247 48 -264 hlineto
          -83 234 rlineto
          347 48 -364 hlineto
          -261 729 -104 0 -259 -729 rlineto
          -370 -48 353 hlineto
          -84 -234 rlineto
          -269 -48 252 hlineto
          189 330 rmoveto
          175 520 177 -520 rlineto
          -446 -282 rmoveto
          78 234 384 0 80 -234 rlineto
          endchar
        </CharString>
        <CharString name="austral.tnum">
          1136 -6 438 rmoveto
          -48 212 vlineto
          -36 -124 -52 -178 -25 -29 -99 -12 rlinecurve
          -47 338 47 vlineto
          -122 14 -15 28 49 177 rrcurveto
          34 124 452 0 38 -140 43 -157 -14 -33 -118 -13 rlinecurve
          -47 462 47 vlineto
          -92 11 -25 29 -49 163 -41 140 rcurveline
          207 48 -221 hlineto
          -68 234 rlineto
          289 47 -303 hlineto
          -213 729 -112 0 -211 -729 rlineto
          -308 -47 294 hlineto
          -68 -234 rlineto
          148 281 rmoveto
          136 494 135 -494 rlineto
          -348 -281 rmoveto
          64 234 297 0 65 -234 rlineto
          endchar
        </CharString>
        <CharString name="b">
          -86 callgsubr
          110 callsubr
          endchar
        </CharString>
        <CharString name="backslash">
          651 525 -280 rmoveto
          99 hlineto
          -498 1860 rlineto
          -99 hlineto
          endchar
        </CharString>
        <CharString name="baht">
          1281 83 30 rmoveto
          514 hlineto
          10 11 0 10 hhcurveto
          -219 48 222 vlineto
          280 19 225 127 246 vvcurveto
          219 -180 119 -269 16 vhcurveto
          201 21 172 101 189 vvcurveto
          191 -155 113 -274 18 vhcurveto
          220 -48 -218 vlineto
          -10 -11 0 -10 hhcurveto
          -514 73 callgsubr
          349 1283 rmoveto
          114 -5 29 -1 28 -2 25 -4 rlinecurve
          -558 vlineto
          -10 -11 -1 -11 hhcurveto
          -164 hlineto
          469 278 rmoveto
          -158 -82 -90 -143 -24 vhcurveto
          545 vlineto
          162 -38 63 -101 -134 vvcurveto
          -469 -333 rmoveto
          164 -2 rlineto
          11 10 0 -1 11 hvcurveto
          -636 vlineto
          -26 -3 -28 -2 -28 -1 -114 -5 rcurveline
          537 330 rmoveto
          -173 -106 -103 -187 -35 vhcurveto
          624 vlineto
          190 -25 103 -114 -174 vvcurveto
          endchar
        </CharString>
        <CharString name="baht.tnum">
          1136 52 30 rmoveto
          493 hlineto
          6 5 0 5 hhcurveto
          -219 48 221 vlineto
          264 18 225 130 239 12 callgsubr
          178 -142 111 -270 15 vhcurveto
          220 -48 -218 vlineto
          -5 -5 0 -6 hhcurveto
          -493 24 callgsubr
          341 1283 rmoveto
          111 -2 20 -1 19 -2 18 -2 rlinecurve
          -565 vlineto
          -1 -9 -10 0 -9 hhcurveto
          -140 -1 rlineto
          426 292 rmoveto
          -154 -74 -102 -136 -28 vhcurveto
          550 vlineto
          141 -34 69 -97 -135 vvcurveto
          -426 -344 rmoveto
          140 -1 rlineto
          9 10 -1 9 hhcurveto
          -643 vlineto
          -18 -3 -20 -1 -19 -1 -111 -2 rcurveline
          494 328 rmoveto
          -175 -111 -105 -167 -34 vhcurveto
          631 vlineto
          178 -26 100 -116 -175 vvcurveto
          endchar
        </CharString>
        <CharString name="bar">
          651 276 -280 rmoveto
          99 1860 -99 hlineto
          endchar
        </CharString>
        <CharString name="bdotaccent">
          1175 263 1647 rmoveto
          63 52 48 63 63 -52 49 -63 -64 -51 -49 -63 -63 51 -48 64 hvcurveto
          821 -1149 rmoveto
          110 callsubr
          endchar
        </CharString>
        <CharString name="bdotbelow">
          -86 callgsubr
          110 callsubr
          -268 -870 95 callsubr
          38 callsubr
        </CharString>
        <CharString name="becyrillic">
          1200 1108 490 rmoveto
          303 -203 189 -284 -216 -152 -131 -176 -65 vhcurveto
          -3 32 -1 33 34 vvcurveto
          227 101 180 319 37 vhcurveto
          123 14 256 31 81 61 15 177 rlinecurve
          -48 hlineto
          -16 -52 -52 -14 -215 -24 -211 -24 -127 -56 -109 -105 rrcurveto
          -127 -122 -72 -204 -315 vvcurveto
          -362 176 -242 318 272 240 202 307 vhcurveto
          -214 -15 rmoveto
          -256 -96 -173 -190 -181 -104 186 254 258 96 173 189 178 108 -185 -257 vhcurveto
          endchar
        </CharString>
        <CharString name="betagreek">
          1166 144 -460 rmoveto
          203 hlineto
          -3 208 -2 183 -2 161 rrcurveto
          -64 56 106 -49 125 hhcurveto
          218 229 144 283 258 -177 160 -238 22 hvcurveto
          166 19 170 116 188 vvcurveto
          204 -157 126 -253 -238 -200 -130 -364 -1 vhcurveto
          188 98 rmoveto
          218 86 112 164 149 77 -116 -165 -181 -111 -108 -227 -2 vhcurveto
          -143 vlineto
          265 -4 145 -139 -222 vvcurveto
          -199 -124 -103 -164 -114 -93 45 64 -48 vhcurveto
          -6 500 1 277 166 vvcurveto
          endchar
        </CharString>
        <CharString name="bitcoin">
          1280 83 30 rmoveto
          391 -219 48 219 74 hlineto
          56 54 4 8 52 hvcurveto
          -231 48 240 vlineto
          216 45 158 123 206 vvcurveto
          219 -180 119 -269 16 vhcurveto
          202 21 171 101 189 vvcurveto
          158 -106 105 -192 41 vhcurveto
          238 -48 -229 vlineto
          7 -49 -54 4 -59 hhcurveto
          -74 218 -48 -218 -391 73 callgsubr
          817 990 rmoveto
          -186 -112 -91 -194 -1 vhcurveto
          -162 571 hlineto
          113 -5 rlineto
          259 -8 96 -114 -166 vvcurveto
          68 -653 rmoveto
          -210 -157 -106 -266 -9 vhcurveto
          -113 -5 0 650 162 -2 rlineto
          241 -1 133 -120 -197 vvcurveto
          endchar
        </CharString>
        <CharString name="bitcoin.tnum">
          1136 52 30 rmoveto
          362 -219 48 219 83 hlineto
          50 49 4 8 47 hvcurveto
          -231 47 240 vlineto
          204 46 156 123 199 12 callgsubr
          147 -97 102 -186 39 vhcurveto
          236 -47 -228 vlineto
          6 -45 -48 4 -53 hhcurveto
          -83 218 -48 -218 -362 24 callgsubr
          767 1001 rmoveto
          -180 -103 -110 -183 -1 vhcurveto
          -139 -1 0 574 110 -2 rlineto
          212 -7 103 -108 -165 vvcurveto
          68 -668 rmoveto
          -210 -159 -109 -224 -7 vhcurveto
          -110 -2 0 652 139 -1 rlineto
          224 -2 130 -122 -199 vvcurveto
          endchar
        </CharString>
        <CharString name="blinebelow">
          -86 callgsubr
          110 callsubr
          -520 -824 -73 callsubr
        </CharString>
        <CharString name="braceleft">
          651 391 970 rmoveto
          285 vlineto
          165 35 113 168 vhcurveto
          47 -42 vlineto
          -211 -114 -124 -219 hvcurveto
          -343 vlineto
          -154 -90 -68 -110 vhcurveto
          -39 vlineto
          110 90 -68 -156 hvcurveto
          -345 vlineto
          -219 114 -125 211 vhcurveto
          42 47 hlineto
          -168 -35 113 166 hvcurveto
          289 vlineto
          192 -83 101 -186 24 vhcurveto
          188 24 81 101 193 vvcurveto
          endchar
        </CharString>
        <CharString name="braceright">
          651 259 970 rmoveto
          -193 82 -101 187 -24 vhcurveto
          -185 -24 -84 -101 -193 vvcurveto
          -288 vlineto
          -166 -34 -113 -168 vhcurveto
          -47 41 vlineto
          212 114 125 219 hvcurveto
          345 vlineto
          156 90 68 109 vhcurveto
          39 vlineto
          -109 -90 68 154 hvcurveto
          343 vlineto
          219 -114 124 -212 vhcurveto
          -41 -47 hlineto
          168 34 -113 -165 hvcurveto
          endchar
        </CharString>
        <CharString name="bracketleft">
          651 181 -283 rmoveto
          390 3 0 48 -220 5 0 1754 220 5 0 48 -390 4 rlineto
          endchar
        </CharString>
        <CharString name="bracketright">
          651 470 1584 rmoveto
          -390 -4 0 -48 219 -5 0 -1754 -219 -5 0 -48 390 -3 rlineto
          endchar
        </CharString>
        <CharString name="breve">
          1024 512 -107 callgsubr
          endchar
        </CharString>
        <CharString name="breveacutecmb">
          -82 callgsubr
          250 -272 -23 callsubr
          endchar
        </CharString>
        <CharString name="breveacutecmb.short">
          0 257 78 callgsubr
          257 -222 4 callsubr
          124 callsubr
        </CharString>
        <CharString name="brevebelowcmb">
          0 -439 vmoveto
          -44 callgsubr
          -3 15 hvcurveto
          -49 159 callsubr
        </CharString>
        <CharString name="brevecmb">
          0 1142 vmoveto
          214 callsubr
          98 -136 176 vhcurveto
          endchar
        </CharString>
        <CharString name="brevecmb.short">
          0 1126 vmoveto
          155 89 120 121 15 -1 16 -3 14 hvcurveto
          -47 -7 hlineto
          -91 -75 -68 -119 -117 -76 68 91 vhcurveto
          7 -47 vlineto
          92 callgsubr
          endchar
        </CharString>
        <CharString name="brevecyrilliccmb">
          0 1136 vmoveto
          178 98 111 115 65 -41 41 -57 -55 -38 -42 -52 -51 40 -41 49 8 9 2 2 8 hvcurveto
          -54 -36 -68 -38 -95 -89 callgsubr
          -11 callgsubr
          endchar
        </CharString>
        <CharString name="brevecyrilliccmb.short">
          0 1595 vmoveto
          177 106 165 callsubr
          -38 -72 170 callsubr
          -39 41 -54 -55 -100 callgsubr
          endchar
        </CharString>
        <CharString name="brevegravecmb">
          0 -250 -21 callsubr
          250 -495 -23 callsubr
          endchar
        </CharString>
        <CharString name="brevegravecmb.short">
          0 -256 74 callsubr
          256 -412 4 callsubr
          124 callsubr
        </CharString>
        <CharString name="brevehookabovecmb">
          0 -6 53 callgsubr
          44 hhcurveto
          56 -43 callgsubr
          -78 42 -83 vhcurveto
          6 -479 -23 callsubr
          endchar
        </CharString>
        <CharString name="brevehookabovecmb.short">
          0 -6 1945 rmoveto
          -76 -54 -30 -26 -30 hvcurveto
          -37 vlineto
          12 21 41 12 44 hhcurveto
          57 37 -22 -35 -34 -32 -23 -65 -16 hvcurveto
          43 -28 rlineto
          112 24 67 57 callgsubr
          124 callsubr
        </CharString>
        <CharString name="brevetildecmb">
          0 109 71 callsubr
          -27 -21 -42 -36 callsubr
          26 26 -40 callgsubr
          -10 43 hhcurveto
          -109 -296 -23 callsubr
          endchar
        </CharString>
        <CharString name="brevetildecmb.short">
          0 112 1785 rmoveto
          83 62 48 103 hvcurveto
          -51 hlineto
          -46 -1 -28 -18 -43 hhcurveto
          -26 -26 22 callgsubr
          50 hlineto
          46 1 28 17 43 hhcurveto
          27 26 -6 -13 40 hvcurveto
          29 -9 rlineto
          -13 40 39 -9 45 hhcurveto
          -112 -248 4 callsubr
          124 callsubr
        </CharString>
        <CharString name="brokenbar">
          651 276 789 rmoveto
          99 791 -99 hlineto
          -1860 vmoveto
          99 791 -99 hlineto
          endchar
        </CharString>
        <CharString name="bullet">
          692 346 392 rmoveto
          97 80 79 99 99 -80 78 -97 -96 -81 -78 -99 -99 81 -79 96 hvcurveto
          endchar
        </CharString>
        <CharString name="c">
          987 568 -19 23 callsubr
        </CharString>
        <CharString name="cacute">
          987 527 -95 callgsubr
          -212 vlineto
          -164 -356 rlineto
          100 -1130 23 callsubr
        </CharString>
        <CharString name="caret">
          493 230 hmoveto
          -264 -350 47 -48 233 309 233 -310 49 48 -264 351 rlineto
          endchar
        </CharString>
        <CharString name="caron">
          1024 731 -48 callsubr
          endchar
        </CharString>
        <CharString name="caroncmb">
          0 219 -48 callsubr
          endchar
        </CharString>
        <CharString name="caroncmb.short">
          0 211 1365 -88 callgsubr
          -19 callsubr
          endchar
        </CharString>
        <CharString name="carondotaccentcmb">
          0 1358 vmoveto
          52 40 39 52 49 -40 40 -52 -51 -41 -40 -49 -52 41 -39 51 hvcurveto
          250 -29 rmoveto
          -250 -109 -250 109 0 -52 232 -188 37 0 231 188 rlineto
          endchar
        </CharString>
        <CharString name="carondotaccentcmb.short">
          0 1772 vmoveto
          49 38 33 43 42 -38 34 -49 -49 -38 -34 -42 -43 38 -33 49 hvcurveto
          263 58 callgsubr
          244 159 rlineto
          endchar
        </CharString>
        <CharString name="caronslovak">
          1024 448 65 callgsubr
        </CharString>
        <CharString name="caronslovakcmb">
          0 64 65 callgsubr
        </CharString>
        <CharString name="ccaron">
          987 795 134 callsubr
          226 -96 callgsubr
          -285 -1501 23 callsubr
        </CharString>
        <CharString name="ccedilla">
          987 545 -462 172 callsubr
          68 96 146 9 115 61 60 82 rlinecurve
          150 callsubr
          207 callsubr
        </CharString>
        <CharString name="ccedillaacute">
          987 527 -95 callgsubr
          -212 vlineto
          -164 -356 rlineto
          77 -1573 172 callsubr
          68 96 146 9 115 61 60 82 rlinecurve
          150 callsubr
          207 callsubr
        </CharString>
        <CharString name="ccircumflex">
          987 356 78 callsubr
          -227 356 -102 0 -226 -356 rlineto
          270 -1130 23 callsubr
        </CharString>
        <CharString name="cdotaccent">
          987 575 -65 callsubr
          -7 -1199 23 callsubr
        </CharString>
        <CharString name="cedi">
          1335 744 -189 rmoveto
          48 201 hlineto
          5 6 0 6 hhcurveto
          179 176 50 58 76 hvcurveto
          13 288 rlineto
          -43 hlineto
          -245 -60 -136 -85 -197 hhcurveto
          -9 -8 0 1 -8 hvcurveto
          1287 vlineto
          8 8 0 9 hhcurveto
          207 124 -102 -225 57 hvcurveto
          42 hlineto
          -13 288 rlineto
          58 -85 -138 47 -208 -4 -4 0 -3 hhcurveto
          200 -48 -202 vlineto
          -371 -25 -266 -260 -412 vvcurveto
          -431 276 -260 361 -27 vhcurveto
          -418 736 rmoveto
          351 154 225 264 35 vhcurveto
          -1278 vlineto
          -263 42 -155 272 353 vvcurveto
          endchar
        </CharString>
        <CharString name="cedi.tnum">
          1136 643 -189 rmoveto
          47 202 hlineto
          156 143 42 45 72 hvcurveto
          14 284 rlineto
          -44 hlineto
          -54 -227 -113 -80 -159 1 rrcurveto
          -5 -5 0 -5 hhcurveto
          1288 vlineto
          6 6 0 7 hhcurveto
          150 106 -94 -208 50 hvcurveto
          43 hlineto
          -13 284 rlineto
          45 -76 -113 38 -163 hhcurveto
          -3 201 -47 -203 hlineto
          -325 -24 -236 -264 -409 vvcurveto
          1 -455 247 -241 313 -22 rrcurveto
          -344 736 rmoveto
          354 125 221 219 36 vhcurveto
          -1278 vlineto
          -221 39 -123 255 373 vvcurveto
          endchar
        </CharString>
        <CharString name="cedilla">
          1024 482 62 callgsubr
          -9 -8 -1 -1 -8 hvcurveto
          78 115 rlineto
          24 -44 vlineto
          -143 -195 87 callsubr
          54 -29 -56 -54 -51 -31 -64 -50 -53 15 23 -29 hvcurveto
          -1 -47 rlineto
          -44 34 72 -31 86 hhcurveto
          endchar
        </CharString>
        <CharString name="cedillacmb">
          0 -30 62 callgsubr
          hvcurveto
          -9 -8 -1 -7 hhcurveto
          77 108 rlineto
          24 -44 vlineto
          -143 -189 87 callsubr
          54 -29 -56 -54 -51 -31 -64 -50 -53 16 22 -29 hvcurveto
          -1 -47 rlineto
          -44 34 71 -31 87 hhcurveto
          endchar
        </CharString>
        <CharString name="cent">
          995 599 59 callgsubr
          -59 -93 -39 -111 hhcurveto
          -26 -24 2 5 -24 hvcurveto
          835 vlineto
          1 12 12 1 12 hhcurveto
          69 58 -17 -30 43 hvcurveto
          -49 -6 -38 -43 -54 vvcurveto
          -60 46 -48 61 59 48 48 62 125 -125 92 -207 vhcurveto
          -1 214 -48 -216 hlineto
          -264 -22 -196 -204 1 -285 rrcurveto
          -296 196 -199 263 -8 vhcurveto
          -214 vlineto
          -253 759 rmoveto
          207 99 147 154 38 vhcurveto
          -814 vlineto
          -151 51 -102 151 220 vvcurveto
          endchar
        </CharString>
        <CharString name="cent.1">
          987 599 hmoveto
          214 vlineto
          150 8 118 62 62 83 -1 47 rcurveline
          -57 -58 11 callgsubr
          71 57 -16 -30 41 hvcurveto
          -51 -5 -40 -44 -56 vvcurveto
          -60 47 -47 61 59 32 callgsubr
          -262 -20 -197 -203 -286 vvcurveto
          -297 196 -201 263 -8 vhcurveto
          -214 vlineto
          endchar
        </CharString>
        <CharString name="cent.1.tnum">
          1136 637 hmoveto
          214 vlineto
          150 8 119 62 61 83 -1 47 rcurveline
          -57 -57 11 callgsubr
          70 57 -16 -30 41 hvcurveto
          -50 -5 -40 -44 -56 vvcurveto
          -60 47 -47 61 58 32 callgsubr
          -261 -20 -198 -203 -286 vvcurveto
          -297 197 -201 262 -8 vhcurveto
          -214 vlineto
          endchar
        </CharString>
        <CharString name="cent.tnum">
          1136 633 59 callgsubr
          -58 -94 -39 -111 hhcurveto
          -25 -25 2 5 -24 hvcurveto
          835 vlineto
          1 12 12 1 13 hhcurveto
          69 58 -17 -30 42 hvcurveto
          -48 -6 -38 -43 -54 vvcurveto
          -60 46 -48 60 60 47 48 62 125 -125 92 -206 vhcurveto
          -2 214 -47 -216 hlineto
          -264 -22 -196 -204 -285 vvcurveto
          -296 197 -199 263 -8 vhcurveto
          -214 vlineto
          -254 759 rmoveto
          207 99 146 155 39 vhcurveto
          -814 vlineto
          -151 51 -103 151 220 vvcurveto
          endchar
        </CharString>
        <CharString name="checyrillic">
          1177 163 699 rmoveto
          -217 134 -100 194 115 108 32 40 66 vhcurveto
          -317 vlineto
          -66 -20 -14 -133 -10 vhcurveto
          -47 486 47 vlineto
          -117 9 -19 15 66 vvcurveto
          703 vlineto
          67 19 15 117 9 vhcurveto
          47 -466 -47 vlineto
          116 -9 17 -15 -66 vvcurveto
          -339 vlineto
          -21 -44 -88 -22 -74 hhcurveto
          -139 -75 70 171 hvcurveto
          141 vlineto
          66 18 15 113 9 vhcurveto
          47 -463 -47 vlineto
          117 -9 18 -15 -67 vvcurveto
          endchar
        </CharString>
        <CharString name="chigreek">
          1062 253 -459 rmoveto
          206 653 164 -381 rlineto
          -212 87 66 -74 122 hhcurveto
          72 56 33 39 35 hvcurveto
          46 vlineto
          -10 -13 -25 -9 -29 hhcurveto
          -63 -43 37 160 -71 hvcurveto
          -200 464 123 236 133 232 141 222 rlinecurve
          -219 hlineto
          -205 -626 -151 351 rlineto
          212 -88 -63 74 -123 hhcurveto
          -74 -55 -34 -38 -36 hvcurveto
          -47 vlineto
          10 14 25 10 29 hhcurveto
          64 45 -36 -161 68 hvcurveto
          187 -435 -130 -257 -130 -240 -138 -219 rlinecurve
          endchar
        </CharString>
        <CharString name="circumflex">
          1024 293 -49 callsubr
          endchar
        </CharString>
        <CharString name="circumflexacutecmb">
          -82 callgsubr
          -281 vmoveto
          -47 callsubr
          endchar
        </CharString>
        <CharString name="circumflexacutecmb.short">
          0 257 27 callgsubr
          -105 callgsubr
        </CharString>
        <CharString name="circumflexbelowcmb">
          0 -204 -453 -26 callsubr
          56 0 -211 320 -94 0 -211 -320 rlineto
          endchar
        </CharString>
        <CharString name="circumflexcmb">
          0 -219 -49 callsubr
          endchar
        </CharString>
        <CharString name="circumflexcmb.short">
          0 -193 1081 rmoveto
          203 -102 callgsubr
          271 -108 0 -205 -271 rlineto
          endchar
        </CharString>
        <CharString name="circumflexgravecmb">
          0 -250 -21 callsubr
          -504 vmoveto
          -47 callsubr
          endchar
        </CharString>
        <CharString name="circumflexgravecmb.short">
          0 -256 126 callsubr
          -105 callgsubr
        </CharString>
        <CharString name="circumflexhookabovecmb">
          0 193 1577 rmoveto
          -72 -53 -34 -31 -30 -68 callgsubr
          -31 71 callgsubr
          -70 callgsubr
          endchar
        </CharString>
        <CharString name="circumflexhookabovecmb.short">
          0 215 133 callsubr
          48 callgsubr
          -105 callgsubr
        </CharString>
</ttFont>
